<svg width="450" height="1190" viewBox="0 0 450 1190" fill="none" xmlns="http://www.w3.org/2000/svg">
	<rect width="450" height="1190" fill="white"/>
	<path d="M117.292 666L117.276 657.84L113.228 664.64H112.492L108.444 657.888V666H106.908V654.8H108.22L112.892 662.672L117.5 654.8H118.812L118.828 666H117.292ZM125.69 666.096C124.848 666.096 124.09 665.909 123.418 665.536C122.746 665.163 122.218 664.651 121.834 664C121.461 663.339 121.274 662.592 121.274 661.76C121.274 660.928 121.461 660.187 121.834 659.536C122.218 658.875 122.746 658.363 123.418 658C124.09 657.627 124.848 657.44 125.69 657.44C126.533 657.44 127.285 657.627 127.946 658C128.618 658.363 129.141 658.875 129.514 659.536C129.898 660.187 130.09 660.928 130.09 661.76C130.09 662.592 129.898 663.339 129.514 664C129.141 664.651 128.618 665.163 127.946 665.536C127.285 665.909 126.533 666.096 125.69 666.096ZM125.69 664.752C126.234 664.752 126.72 664.629 127.146 664.384C127.584 664.128 127.925 663.776 128.17 663.328C128.416 662.869 128.538 662.347 128.538 661.76C128.538 661.173 128.416 660.656 128.17 660.208C127.925 659.749 127.584 659.397 127.146 659.152C126.72 658.907 126.234 658.784 125.69 658.784C125.146 658.784 124.656 658.907 124.218 659.152C123.792 659.397 123.45 659.749 123.194 660.208C122.949 660.656 122.826 661.173 122.826 661.76C122.826 662.347 122.949 662.869 123.194 663.328C123.45 663.776 123.792 664.128 124.218 664.384C124.656 664.629 125.146 664.752 125.69 664.752ZM139.739 662.416H138.091V666H136.555V662.416H134.907L132.571 666H130.747L133.659 661.616L130.971 657.52H132.603L134.891 661.104H136.555V657.52H138.091V661.104H139.755L142.043 657.52H143.691L141.003 661.632L143.915 666H142.091L139.739 662.416ZM152.885 657.52V666H151.349V658.864H147.701L147.605 660.752C147.552 661.893 147.451 662.848 147.301 663.616C147.152 664.373 146.907 664.981 146.565 665.44C146.224 665.899 145.749 666.128 145.141 666.128C144.864 666.128 144.549 666.08 144.197 665.984L144.293 664.688C144.432 664.72 144.56 664.736 144.677 664.736C145.104 664.736 145.424 664.549 145.637 664.176C145.851 663.803 145.989 663.36 146.053 662.848C146.117 662.336 146.176 661.605 146.229 660.656L146.373 657.52H152.885ZM155.855 657.52H157.391V663.696L162.591 657.52H163.983V666H162.447V659.824L157.263 666H155.855V657.52ZM172.741 661.6C173.839 661.877 174.389 662.565 174.389 663.664C174.389 664.411 174.106 664.987 173.541 665.392C172.986 665.797 172.154 666 171.045 666H166.965V657.52H170.901C171.903 657.52 172.687 657.712 173.253 658.096C173.818 658.469 174.101 659.003 174.101 659.696C174.101 660.144 173.978 660.533 173.733 660.864C173.498 661.184 173.167 661.429 172.741 661.6ZM168.469 661.168H170.773C171.359 661.168 171.802 661.061 172.101 660.848C172.41 660.635 172.565 660.325 172.565 659.92C172.565 659.109 171.967 658.704 170.773 658.704H168.469V661.168ZM170.933 664.816C171.573 664.816 172.053 664.715 172.373 664.512C172.693 664.309 172.853 663.995 172.853 663.568C172.853 663.131 172.703 662.805 172.405 662.592C172.117 662.379 171.658 662.272 171.029 662.272H168.469V664.816H170.933ZM184.457 661.808C184.457 661.925 184.446 662.08 184.425 662.272H177.545C177.641 663.019 177.966 663.621 178.521 664.08C179.086 664.528 179.785 664.752 180.617 664.752C181.63 664.752 182.446 664.411 183.065 663.728L183.913 664.72C183.529 665.168 183.049 665.509 182.473 665.744C181.907 665.979 181.273 666.096 180.569 666.096C179.673 666.096 178.878 665.915 178.185 665.552C177.491 665.179 176.953 664.661 176.569 664C176.195 663.339 176.009 662.592 176.009 661.76C176.009 660.939 176.19 660.197 176.553 659.536C176.926 658.875 177.433 658.363 178.073 658C178.723 657.627 179.454 657.44 180.265 657.44C181.075 657.44 181.795 657.627 182.425 658C183.065 658.363 183.561 658.875 183.913 659.536C184.275 660.197 184.457 660.955 184.457 661.808ZM180.265 658.736C179.529 658.736 178.91 658.96 178.409 659.408C177.918 659.856 177.63 660.443 177.545 661.168H182.985C182.899 660.453 182.606 659.872 182.105 659.424C181.614 658.965 181.001 658.736 180.265 658.736ZM196.912 661.6C198.011 661.877 198.56 662.565 198.56 663.664C198.56 664.411 198.278 664.987 197.712 665.392C197.158 665.797 196.326 666 195.216 666H191.136V657.52H195.072C196.075 657.52 196.859 657.712 197.424 658.096C197.99 658.469 198.272 659.003 198.272 659.696C198.272 660.144 198.15 660.533 197.904 660.864C197.67 661.184 197.339 661.429 196.912 661.6ZM192.64 661.168H194.944C195.531 661.168 195.974 661.061 196.272 660.848C196.582 660.635 196.736 660.325 196.736 659.92C196.736 659.109 196.139 658.704 194.944 658.704H192.64V661.168ZM195.104 664.816C195.744 664.816 196.224 664.715 196.544 664.512C196.864 664.309 197.024 663.995 197.024 663.568C197.024 663.131 196.875 662.805 196.576 662.592C196.288 662.379 195.83 662.272 195.2 662.272H192.64V664.816H195.104ZM200.965 657.52H202.501V663.696L207.701 657.52H209.093V666H207.557V659.824L202.373 666H200.965V657.52ZM215.37 662.416H213.61V666H212.074V657.52H213.61V661.104H215.402L218.154 657.52H219.802L216.586 661.6L220.026 666H218.218L215.37 662.416ZM224.987 666.096C224.145 666.096 223.387 665.909 222.715 665.536C222.043 665.163 221.515 664.651 221.131 664C220.758 663.339 220.571 662.592 220.571 661.76C220.571 660.928 220.758 660.187 221.131 659.536C221.515 658.875 222.043 658.363 222.715 658C223.387 657.627 224.145 657.44 224.987 657.44C225.83 657.44 226.582 657.627 227.243 658C227.915 658.363 228.438 658.875 228.811 659.536C229.195 660.187 229.387 660.928 229.387 661.76C229.387 662.592 229.195 663.339 228.811 664C228.438 664.651 227.915 665.163 227.243 665.536C226.582 665.909 225.83 666.096 224.987 666.096ZM224.987 664.752C225.531 664.752 226.017 664.629 226.443 664.384C226.881 664.128 227.222 663.776 227.467 663.328C227.713 662.869 227.835 662.347 227.835 661.76C227.835 661.173 227.713 660.656 227.467 660.208C227.222 659.749 226.881 659.397 226.443 659.152C226.017 658.907 225.531 658.784 224.987 658.784C224.443 658.784 223.953 658.907 223.515 659.152C223.089 659.397 222.747 659.749 222.491 660.208C222.246 660.656 222.123 661.173 222.123 661.76C222.123 662.347 222.246 662.869 222.491 663.328C222.747 663.776 223.089 664.128 223.515 664.384C223.953 664.629 224.443 664.752 224.987 664.752ZM231.605 657.52H233.141V661.12H237.973V657.52H239.509V666H237.973V662.448H233.141V666H231.605V657.52ZM245.52 657.44C246.693 657.44 247.589 657.728 248.208 658.304C248.837 658.88 249.152 659.739 249.152 660.88V666H247.696V664.88C247.44 665.275 247.072 665.579 246.592 665.792C246.122 665.995 245.562 666.096 244.912 666.096C243.962 666.096 243.2 665.867 242.624 665.408C242.058 664.949 241.776 664.347 241.776 663.6C241.776 662.853 242.048 662.256 242.592 661.808C243.136 661.349 244 661.12 245.184 661.12H247.616V660.816C247.616 660.155 247.424 659.648 247.04 659.296C246.656 658.944 246.09 658.768 245.344 658.768C244.842 658.768 244.352 658.853 243.872 659.024C243.392 659.184 242.986 659.403 242.656 659.68L242.016 658.528C242.453 658.176 242.976 657.909 243.584 657.728C244.192 657.536 244.837 657.44 245.52 657.44ZM245.168 664.912C245.754 664.912 246.261 664.784 246.688 664.528C247.114 664.261 247.424 663.888 247.616 663.408V662.224H245.248C243.946 662.224 243.296 662.661 243.296 663.536C243.296 663.963 243.461 664.299 243.792 664.544C244.122 664.789 244.581 664.912 245.168 664.912ZM251.918 657.52H253.454V661.12H258.286V657.52H259.822V666H258.286V662.448H253.454V666H251.918V657.52ZM262.808 657.52H264.344V661.12H269.176V657.52H270.712V666H269.176V662.448H264.344V666H262.808V657.52ZM280.499 657.52V666H279.123V663.312H276.659H276.483L274.627 666H272.979L275.043 663.104C274.403 662.912 273.912 662.597 273.571 662.16C273.23 661.712 273.059 661.157 273.059 660.496C273.059 659.525 273.39 658.789 274.051 658.288C274.712 657.776 275.624 657.52 276.787 657.52H280.499ZM274.627 660.544C274.627 661.109 274.803 661.531 275.155 661.808C275.518 662.075 276.056 662.208 276.771 662.208H279.123V658.864H276.835C275.363 658.864 274.627 659.424 274.627 660.544ZM295.649 657.52V666H294.113V658.864H289.329V666H287.793V657.52H295.649ZM305.901 657.52V666H304.365V658.864H300.717L300.621 660.752C300.567 661.893 300.466 662.848 300.317 663.616C300.167 664.373 299.922 664.981 299.581 665.44C299.239 665.899 298.765 666.128 298.157 666.128C297.879 666.128 297.565 666.08 297.213 665.984L297.309 664.688C297.447 664.72 297.575 664.736 297.693 664.736C298.119 664.736 298.439 664.549 298.653 664.176C298.866 663.803 299.005 663.36 299.069 662.848C299.133 662.336 299.191 661.605 299.245 660.656L299.389 657.52H305.901ZM311.895 657.44C313.068 657.44 313.964 657.728 314.583 658.304C315.212 658.88 315.527 659.739 315.527 660.88V666H314.071V664.88C313.815 665.275 313.447 665.579 312.967 665.792C312.497 665.995 311.937 666.096 311.287 666.096C310.337 666.096 309.575 665.867 308.999 665.408C308.433 664.949 308.151 664.347 308.151 663.6C308.151 662.853 308.423 662.256 308.967 661.808C309.511 661.349 310.375 661.12 311.559 661.12H313.991V660.816C313.991 660.155 313.799 659.648 313.415 659.296C313.031 658.944 312.465 658.768 311.719 658.768C311.217 658.768 310.727 658.853 310.247 659.024C309.767 659.184 309.361 659.403 309.031 659.68L308.391 658.528C308.828 658.176 309.351 657.909 309.959 657.728C310.567 657.536 311.212 657.44 311.895 657.44ZM311.543 664.912C312.129 664.912 312.636 664.784 313.063 664.528C313.489 664.261 313.799 663.888 313.991 663.408V662.224H311.623C310.321 662.224 309.671 662.661 309.671 663.536C309.671 663.963 309.836 664.299 310.167 664.544C310.497 664.789 310.956 664.912 311.543 664.912ZM318.293 657.52H319.829V661.12H324.661V657.52H326.197V666H324.661V662.448H319.829V666H318.293V657.52ZM336.751 657.52L332.639 666.848C332.277 667.712 331.85 668.32 331.359 668.672C330.879 669.024 330.298 669.2 329.615 669.2C329.199 669.2 328.794 669.131 328.399 668.992C328.015 668.864 327.695 668.672 327.439 668.416L328.095 667.264C328.533 667.68 329.039 667.888 329.615 667.888C329.989 667.888 330.298 667.787 330.543 667.584C330.799 667.392 331.029 667.056 331.231 666.576L331.503 665.984L327.759 657.52H329.359L332.319 664.304L335.247 657.52H336.751ZM151.988 677.52H153.524V681.12H158.356V677.52H159.892V686H158.356V682.448H153.524V686H151.988V677.52ZM165.903 677.44C167.076 677.44 167.972 677.728 168.591 678.304C169.22 678.88 169.535 679.739 169.535 680.88V686H168.079V684.88C167.823 685.275 167.455 685.579 166.975 685.792C166.505 685.995 165.945 686.096 165.295 686.096C164.345 686.096 163.583 685.867 163.007 685.408C162.441 684.949 162.159 684.347 162.159 683.6C162.159 682.853 162.431 682.256 162.975 681.808C163.519 681.349 164.383 681.12 165.567 681.12H167.999V680.816C167.999 680.155 167.807 679.648 167.423 679.296C167.039 678.944 166.473 678.768 165.727 678.768C165.225 678.768 164.735 678.853 164.255 679.024C163.775 679.184 163.369 679.403 163.039 679.68L162.399 678.528C162.836 678.176 163.359 677.909 163.967 677.728C164.575 677.536 165.22 677.44 165.903 677.44ZM165.551 684.912C166.137 684.912 166.644 684.784 167.071 684.528C167.497 684.261 167.807 683.888 167.999 683.408V682.224H165.631C164.329 682.224 163.679 682.661 163.679 683.536C163.679 683.963 163.844 684.299 164.175 684.544C164.505 684.789 164.964 684.912 165.551 684.912ZM179.893 682.416H178.133V686H176.597V677.52H178.133V681.104H179.925L182.677 677.52H184.325L181.109 681.6L184.549 686H182.741L179.893 682.416ZM186.16 677.52H187.696V686H186.16V677.52ZM186.928 675.888C186.629 675.888 186.379 675.792 186.176 675.6C185.984 675.408 185.888 675.173 185.888 674.896C185.888 674.619 185.984 674.384 186.176 674.192C186.379 673.989 186.629 673.888 186.928 673.888C187.227 673.888 187.472 673.984 187.664 674.176C187.867 674.357 187.968 674.587 187.968 674.864C187.968 675.152 187.867 675.397 187.664 675.6C187.472 675.792 187.227 675.888 186.928 675.888ZM190.691 677.52H192.227V681.12H197.059V677.52H198.595V686H197.059V682.448H192.227V686H190.691V677.52ZM209.246 681.808C209.246 681.925 209.235 682.08 209.214 682.272H202.334C202.43 683.019 202.755 683.621 203.31 684.08C203.875 684.528 204.574 684.752 205.406 684.752C206.419 684.752 207.235 684.411 207.854 683.728L208.702 684.72C208.318 685.168 207.838 685.509 207.262 685.744C206.696 685.979 206.062 686.096 205.358 686.096C204.462 686.096 203.667 685.915 202.974 685.552C202.28 685.179 201.742 684.661 201.358 684C200.984 683.339 200.798 682.592 200.798 681.76C200.798 680.939 200.979 680.197 201.342 679.536C201.715 678.875 202.222 678.363 202.862 678C203.512 677.627 204.243 677.44 205.054 677.44C205.864 677.44 206.584 677.627 207.214 678C207.854 678.363 208.35 678.875 208.702 679.536C209.064 680.197 209.246 680.955 209.246 681.808ZM205.054 678.736C204.318 678.736 203.699 678.96 203.198 679.408C202.707 679.856 202.419 680.443 202.334 681.168H207.774C207.688 680.453 207.395 679.872 206.894 679.424C206.403 678.965 205.79 678.736 205.054 678.736ZM220.685 684.656V688.032H219.229V686H211.629V677.52H213.165V684.656H217.805V677.52H219.341V684.656H220.685ZM226.596 680.4C227.673 680.411 228.494 680.656 229.06 681.136C229.625 681.616 229.908 682.293 229.908 683.168C229.908 684.085 229.598 684.795 228.98 685.296C228.372 685.787 227.497 686.027 226.356 686.016L222.676 686V677.52H224.212V680.384L226.596 680.4ZM226.228 684.848C226.921 684.859 227.444 684.72 227.796 684.432C228.158 684.144 228.34 683.717 228.34 683.152C228.34 682.597 228.164 682.192 227.812 681.936C227.47 681.68 226.942 681.547 226.228 681.536L224.212 681.504V684.832L226.228 684.848ZM245.952 677.52V686H244.56V679.808L241.392 685.04H240.72L237.584 679.792V686H236.176V677.52H237.76L241.088 683.248L244.512 677.52H245.952ZM248.941 677.52H250.477V686H248.941V677.52ZM249.709 675.888C249.41 675.888 249.16 675.792 248.957 675.6C248.765 675.408 248.669 675.173 248.669 674.896C248.669 674.619 248.765 674.384 248.957 674.192C249.16 673.989 249.41 673.888 249.709 673.888C250.008 673.888 250.253 673.984 250.445 674.176C250.648 674.357 250.749 674.587 250.749 674.864C250.749 675.152 250.648 675.397 250.445 675.6C250.253 675.792 250.008 675.888 249.709 675.888ZM257.168 686.096C256.304 686.096 255.531 685.909 254.848 685.536C254.176 685.163 253.648 684.651 253.264 684C252.88 683.339 252.688 682.592 252.688 681.76C252.688 680.928 252.88 680.187 253.264 679.536C253.648 678.875 254.176 678.363 254.848 678C255.531 677.627 256.304 677.44 257.168 677.44C257.936 677.44 258.619 677.595 259.216 677.904C259.824 678.213 260.294 678.661 260.624 679.248L259.456 680C259.19 679.595 258.859 679.291 258.464 679.088C258.07 678.885 257.632 678.784 257.152 678.784C256.598 678.784 256.096 678.907 255.648 679.152C255.211 679.397 254.864 679.749 254.608 680.208C254.363 680.656 254.24 681.173 254.24 681.76C254.24 682.357 254.363 682.885 254.608 683.344C254.864 683.792 255.211 684.139 255.648 684.384C256.096 684.629 256.598 684.752 257.152 684.752C257.632 684.752 258.07 684.651 258.464 684.448C258.859 684.245 259.19 683.941 259.456 683.536L260.624 684.272C260.294 684.859 259.824 685.312 259.216 685.632C258.619 685.941 257.936 686.096 257.168 686.096ZM269.147 677.52V686H267.771V683.312H265.307H265.131L263.275 686H261.627L263.691 683.104C263.051 682.912 262.561 682.597 262.219 682.16C261.878 681.712 261.707 681.157 261.707 680.496C261.707 679.525 262.038 678.789 262.699 678.288C263.361 677.776 264.273 677.52 265.435 677.52H269.147ZM263.275 680.544C263.275 681.109 263.451 681.531 263.803 681.808C264.166 682.075 264.705 682.208 265.419 682.208H267.771V678.864H265.483C264.011 678.864 263.275 679.424 263.275 680.544ZM281.2 684.656V688.032H279.744V686H272.144V677.52H273.68V684.656H278.32V677.52H279.856V684.656H281.2ZM289.991 677.52V686H288.615V683.312H286.151H285.975L284.119 686H282.471L284.535 683.104C283.895 682.912 283.404 682.597 283.063 682.16C282.722 681.712 282.551 681.157 282.551 680.496C282.551 679.525 282.882 678.789 283.543 678.288C284.204 677.776 285.116 677.52 286.279 677.52H289.991ZM284.119 680.544C284.119 681.109 284.295 681.531 284.647 681.808C285.01 682.075 285.548 682.208 286.263 682.208H288.615V678.864H286.327C284.855 678.864 284.119 679.424 284.119 680.544Z" fill="black"/>
	<line x1="173" y1="645.5" x2="272" y2="645.5" stroke="#FFDD00" stroke-width="5"/>
	<path d="M188.685 626.6V642H186.529V628.514H177.597V642H175.419V626.6H188.685ZM199.318 630.23C200.447 630.23 201.459 630.479 202.354 630.978C203.249 631.477 203.945 632.173 204.444 633.068C204.957 633.963 205.214 634.997 205.214 636.17C205.214 637.343 204.957 638.385 204.444 639.294C203.945 640.189 203.249 640.885 202.354 641.384C201.459 641.883 200.447 642.132 199.318 642.132C198.482 642.132 197.712 641.971 197.008 641.648C196.319 641.325 195.732 640.856 195.248 640.24V646.268H193.136V630.34H195.16V632.188C195.629 631.543 196.223 631.059 196.942 630.736C197.661 630.399 198.453 630.23 199.318 630.23ZM199.142 640.284C199.89 640.284 200.557 640.115 201.144 639.778C201.745 639.426 202.215 638.942 202.552 638.326C202.904 637.695 203.08 636.977 203.08 636.17C203.08 635.363 202.904 634.652 202.552 634.036C202.215 633.405 201.745 632.921 201.144 632.584C200.557 632.247 199.89 632.078 199.142 632.078C198.409 632.078 197.741 632.254 197.14 632.606C196.553 632.943 196.084 633.42 195.732 634.036C195.395 634.652 195.226 635.363 195.226 636.17C195.226 636.977 195.395 637.695 195.732 638.326C196.069 638.942 196.539 639.426 197.14 639.778C197.741 640.115 198.409 640.284 199.142 640.284ZM213.276 642.132C212.118 642.132 211.076 641.875 210.152 641.362C209.228 640.849 208.502 640.145 207.974 639.25C207.461 638.341 207.204 637.314 207.204 636.17C207.204 635.026 207.461 634.007 207.974 633.112C208.502 632.203 209.228 631.499 210.152 631C211.076 630.487 212.118 630.23 213.276 630.23C214.435 630.23 215.469 630.487 216.378 631C217.302 631.499 218.021 632.203 218.534 633.112C219.062 634.007 219.326 635.026 219.326 636.17C219.326 637.314 219.062 638.341 218.534 639.25C218.021 640.145 217.302 640.849 216.378 641.362C215.469 641.875 214.435 642.132 213.276 642.132ZM213.276 640.284C214.024 640.284 214.692 640.115 215.278 639.778C215.88 639.426 216.349 638.942 216.686 638.326C217.024 637.695 217.192 636.977 217.192 636.17C217.192 635.363 217.024 634.652 216.686 634.036C216.349 633.405 215.88 632.921 215.278 632.584C214.692 632.247 214.024 632.078 213.276 632.078C212.528 632.078 211.854 632.247 211.252 632.584C210.666 632.921 210.196 633.405 209.844 634.036C209.507 634.652 209.338 635.363 209.338 636.17C209.338 636.977 209.507 637.695 209.844 638.326C210.196 638.942 210.666 639.426 211.252 639.778C211.854 640.115 212.528 640.284 213.276 640.284ZM230.956 632.188H224.488V642H222.376V630.34H230.956V632.188ZM233.118 630.34H235.23V635.29H241.874V630.34H243.986V642H241.874V637.116H235.23V642H233.118V630.34ZM253.087 642.132C251.928 642.132 250.887 641.875 249.963 641.362C249.039 640.849 248.313 640.145 247.785 639.25C247.272 638.341 247.015 637.314 247.015 636.17C247.015 635.026 247.272 634.007 247.785 633.112C248.313 632.203 249.039 631.499 249.963 631C250.887 630.487 251.928 630.23 253.087 630.23C254.246 630.23 255.28 630.487 256.189 631C257.113 631.499 257.832 632.203 258.345 633.112C258.873 634.007 259.137 635.026 259.137 636.17C259.137 637.314 258.873 638.341 258.345 639.25C257.832 640.145 257.113 640.849 256.189 641.362C255.28 641.875 254.246 642.132 253.087 642.132ZM253.087 640.284C253.835 640.284 254.502 640.115 255.089 639.778C255.69 639.426 256.16 638.942 256.497 638.326C256.834 637.695 257.003 636.977 257.003 636.17C257.003 635.363 256.834 634.652 256.497 634.036C256.16 633.405 255.69 632.921 255.089 632.584C254.502 632.247 253.835 632.078 253.087 632.078C252.339 632.078 251.664 632.247 251.063 632.584C250.476 632.921 250.007 633.405 249.655 634.036C249.318 634.652 249.149 635.363 249.149 636.17C249.149 636.977 249.318 637.695 249.655 638.326C250.007 638.942 250.476 639.426 251.063 639.778C251.664 640.115 252.339 640.284 253.087 640.284ZM268.372 635.928C269.149 636.133 269.75 636.463 270.176 636.918C270.601 637.373 270.814 637.937 270.814 638.612C270.814 639.301 270.579 639.917 270.11 640.46C269.64 640.988 268.988 641.406 268.152 641.714C267.33 642.007 266.406 642.154 265.38 642.154C264.514 642.154 263.664 642.044 262.828 641.824C262.006 641.589 261.273 641.259 260.628 640.834L261.266 639.228C261.823 639.58 262.461 639.859 263.18 640.064C263.898 640.255 264.624 640.35 265.358 640.35C266.355 640.35 267.147 640.181 267.734 639.844C268.335 639.492 268.636 639.023 268.636 638.436C268.636 637.893 268.394 637.475 267.91 637.182C267.44 636.889 266.773 636.742 265.908 636.742H263.774V635.224H265.754C266.546 635.224 267.169 635.085 267.624 634.806C268.078 634.527 268.306 634.146 268.306 633.662C268.306 633.134 268.034 632.723 267.492 632.43C266.964 632.137 266.245 631.99 265.336 631.99C264.177 631.99 262.952 632.291 261.662 632.892L261.09 631.264C262.512 630.545 264.001 630.186 265.556 630.186C266.494 630.186 267.338 630.318 268.086 630.582C268.834 630.846 269.42 631.22 269.846 631.704C270.271 632.188 270.484 632.738 270.484 633.354C270.484 633.926 270.293 634.439 269.912 634.894C269.53 635.349 269.017 635.693 268.372 635.928Z" fill="black"/>
	<path d="M130 953H321" stroke="#FFDD00" stroke-width="5"/>
	<line x1="144.985" y1="927.5" x2="307.985" y2="926.5" stroke="#FFDD00" stroke-width="5"/>
	<path d="M158.439 907.6V923H156.283V909.514H147.351V923H145.173V907.6H158.439ZM169.072 911.23C170.201 911.23 171.213 911.479 172.108 911.978C173.002 912.477 173.699 913.173 174.198 914.068C174.711 914.963 174.968 915.997 174.968 917.17C174.968 918.343 174.711 919.385 174.198 920.294C173.699 921.189 173.002 921.885 172.108 922.384C171.213 922.883 170.201 923.132 169.072 923.132C168.236 923.132 167.466 922.971 166.762 922.648C166.072 922.325 165.486 921.856 165.002 921.24V927.268H162.89V911.34H164.914V913.188C165.383 912.543 165.977 912.059 166.696 911.736C167.414 911.399 168.206 911.23 169.072 911.23ZM168.896 921.284C169.644 921.284 170.311 921.115 170.898 920.778C171.499 920.426 171.968 919.942 172.306 919.326C172.658 918.695 172.834 917.977 172.834 917.17C172.834 916.363 172.658 915.652 172.306 915.036C171.968 914.405 171.499 913.921 170.898 913.584C170.311 913.247 169.644 913.078 168.896 913.078C168.162 913.078 167.495 913.254 166.894 913.606C166.307 913.943 165.838 914.42 165.486 915.036C165.148 915.652 164.98 916.363 164.98 917.17C164.98 917.977 165.148 918.695 165.486 919.326C165.823 919.942 166.292 920.426 166.894 920.778C167.495 921.115 168.162 921.284 168.896 921.284ZM183.03 923.132C181.872 923.132 180.83 922.875 179.906 922.362C178.982 921.849 178.256 921.145 177.728 920.25C177.215 919.341 176.958 918.314 176.958 917.17C176.958 916.026 177.215 915.007 177.728 914.112C178.256 913.203 178.982 912.499 179.906 912C180.83 911.487 181.872 911.23 183.03 911.23C184.189 911.23 185.223 911.487 186.132 912C187.056 912.499 187.775 913.203 188.288 914.112C188.816 915.007 189.08 916.026 189.08 917.17C189.08 918.314 188.816 919.341 188.288 920.25C187.775 921.145 187.056 921.849 186.132 922.362C185.223 922.875 184.189 923.132 183.03 923.132ZM183.03 921.284C183.778 921.284 184.446 921.115 185.032 920.778C185.634 920.426 186.103 919.942 186.44 919.326C186.778 918.695 186.946 917.977 186.946 917.17C186.946 916.363 186.778 915.652 186.44 915.036C186.103 914.405 185.634 913.921 185.032 913.584C184.446 913.247 183.778 913.078 183.03 913.078C182.282 913.078 181.608 913.247 181.006 913.584C180.42 913.921 179.95 914.405 179.598 915.036C179.261 915.652 179.092 916.363 179.092 917.17C179.092 917.977 179.261 918.695 179.598 919.326C179.95 919.942 180.42 920.426 181.006 920.778C181.608 921.115 182.282 921.284 183.03 921.284ZM200.71 913.188H194.242V923H192.13V911.34H200.71V913.188ZM202.872 911.34H204.984V916.29H211.628V911.34H213.74V923H211.628V918.116H204.984V923H202.872V911.34ZM222.841 923.132C221.682 923.132 220.641 922.875 219.717 922.362C218.793 921.849 218.067 921.145 217.539 920.25C217.025 919.341 216.769 918.314 216.769 917.17C216.769 916.026 217.025 915.007 217.539 914.112C218.067 913.203 218.793 912.499 219.717 912C220.641 911.487 221.682 911.23 222.841 911.23C223.999 911.23 225.033 911.487 225.943 912C226.867 912.499 227.585 913.203 228.099 914.112C228.627 915.007 228.891 916.026 228.891 917.17C228.891 918.314 228.627 919.341 228.099 920.25C227.585 921.145 226.867 921.849 225.943 922.362C225.033 922.875 223.999 923.132 222.841 923.132ZM222.841 921.284C223.589 921.284 224.256 921.115 224.843 920.778C225.444 920.426 225.913 919.942 226.251 919.326C226.588 918.695 226.757 917.977 226.757 917.17C226.757 916.363 226.588 915.652 226.251 915.036C225.913 914.405 225.444 913.921 224.843 913.584C224.256 913.247 223.589 913.078 222.841 913.078C222.093 913.078 221.418 913.247 220.817 913.584C220.23 913.921 219.761 914.405 219.409 915.036C219.071 915.652 218.903 916.363 218.903 917.17C218.903 917.977 219.071 918.695 219.409 919.326C219.761 919.942 220.23 920.426 220.817 920.778C221.418 921.115 222.093 921.284 222.841 921.284ZM238.126 916.928C238.903 917.133 239.504 917.463 239.93 917.918C240.355 918.373 240.568 918.937 240.568 919.612C240.568 920.301 240.333 920.917 239.864 921.46C239.394 921.988 238.742 922.406 237.906 922.714C237.084 923.007 236.16 923.154 235.134 923.154C234.268 923.154 233.418 923.044 232.582 922.824C231.76 922.589 231.027 922.259 230.382 921.834L231.02 920.228C231.577 920.58 232.215 920.859 232.934 921.064C233.652 921.255 234.378 921.35 235.112 921.35C236.109 921.35 236.901 921.181 237.488 920.844C238.089 920.492 238.39 920.023 238.39 919.436C238.39 918.893 238.148 918.475 237.664 918.182C237.194 917.889 236.527 917.742 235.662 917.742H233.528V916.224H235.508C236.3 916.224 236.923 916.085 237.378 915.806C237.832 915.527 238.06 915.146 238.06 914.662C238.06 914.134 237.788 913.723 237.246 913.43C236.718 913.137 235.999 912.99 235.09 912.99C233.931 912.99 232.706 913.291 231.416 913.892L230.844 912.264C232.266 911.545 233.755 911.186 235.31 911.186C236.248 911.186 237.092 911.318 237.84 911.582C238.588 911.846 239.174 912.22 239.6 912.704C240.025 913.188 240.238 913.738 240.238 914.354C240.238 914.926 240.047 915.439 239.666 915.894C239.284 916.349 238.771 916.693 238.126 916.928ZM248.772 923.132C247.614 923.132 246.572 922.875 245.648 922.362C244.724 921.849 243.998 921.145 243.47 920.25C242.957 919.341 242.7 918.314 242.7 917.17C242.7 916.026 242.957 915.007 243.47 914.112C243.998 913.203 244.724 912.499 245.648 912C246.572 911.487 247.614 911.23 248.772 911.23C249.931 911.23 250.965 911.487 251.874 912C252.798 912.499 253.517 913.203 254.03 914.112C254.558 915.007 254.822 916.026 254.822 917.17C254.822 918.314 254.558 919.341 254.03 920.25C253.517 921.145 252.798 921.849 251.874 922.362C250.965 922.875 249.931 923.132 248.772 923.132ZM248.772 921.284C249.52 921.284 250.188 921.115 250.774 920.778C251.376 920.426 251.845 919.942 252.182 919.326C252.52 918.695 252.688 917.977 252.688 917.17C252.688 916.363 252.52 915.652 252.182 915.036C251.845 914.405 251.376 913.921 250.774 913.584C250.188 913.247 249.52 913.078 248.772 913.078C248.024 913.078 247.35 913.247 246.748 913.584C246.162 913.921 245.692 914.405 245.34 915.036C245.003 915.652 244.834 916.363 244.834 917.17C244.834 917.977 245.003 918.695 245.34 919.326C245.692 919.942 246.162 920.426 246.748 920.778C247.35 921.115 248.024 921.284 248.772 921.284ZM265.814 916.95C267.325 917.331 268.08 918.277 268.08 919.788C268.08 920.815 267.692 921.607 266.914 922.164C266.152 922.721 265.008 923 263.482 923H257.872V911.34H263.284C264.663 911.34 265.741 911.604 266.518 912.132C267.296 912.645 267.684 913.379 267.684 914.332C267.684 914.948 267.516 915.483 267.178 915.938C266.856 916.378 266.401 916.715 265.814 916.95ZM259.94 916.356H263.108C263.915 916.356 264.524 916.209 264.934 915.916C265.36 915.623 265.572 915.197 265.572 914.64C265.572 913.525 264.751 912.968 263.108 912.968H259.94V916.356ZM263.328 921.372C264.208 921.372 264.868 921.233 265.308 920.954C265.748 920.675 265.968 920.243 265.968 919.656C265.968 919.055 265.763 918.607 265.352 918.314C264.956 918.021 264.326 917.874 263.46 917.874H259.94V921.372H263.328ZM275.544 911.23C277.157 911.23 278.389 911.626 279.24 912.418C280.105 913.21 280.538 914.391 280.538 915.96V923H278.536V921.46C278.184 922.003 277.678 922.421 277.018 922.714C276.373 922.993 275.603 923.132 274.708 923.132C273.403 923.132 272.354 922.817 271.562 922.186C270.785 921.555 270.396 920.727 270.396 919.7C270.396 918.673 270.77 917.852 271.518 917.236C272.266 916.605 273.454 916.29 275.082 916.29H278.426V915.872C278.426 914.963 278.162 914.266 277.634 913.782C277.106 913.298 276.329 913.056 275.302 913.056C274.613 913.056 273.938 913.173 273.278 913.408C272.618 913.628 272.061 913.929 271.606 914.31L270.726 912.726C271.327 912.242 272.046 911.875 272.882 911.626C273.718 911.362 274.605 911.23 275.544 911.23ZM275.06 921.504C275.867 921.504 276.563 921.328 277.15 920.976C277.737 920.609 278.162 920.096 278.426 919.436V917.808H275.17C273.381 917.808 272.486 918.409 272.486 919.612C272.486 920.199 272.713 920.661 273.168 920.998C273.623 921.335 274.253 921.504 275.06 921.504ZM284.341 911.34H286.453V916.29H293.097V911.34H295.209V923H293.097V918.116H286.453V923H284.341V911.34ZM303.474 911.23C305.087 911.23 306.319 911.626 307.17 912.418C308.035 913.21 308.468 914.391 308.468 915.96V923H306.466V921.46C306.114 922.003 305.608 922.421 304.948 922.714C304.302 922.993 303.532 923.132 302.638 923.132C301.332 923.132 300.284 922.817 299.492 922.186C298.714 921.555 298.326 920.727 298.326 919.7C298.326 918.673 298.7 917.852 299.448 917.236C300.196 916.605 301.384 916.29 303.012 916.29H306.356V915.872C306.356 914.963 306.092 914.266 305.564 913.782C305.036 913.298 304.258 913.056 303.232 913.056C302.542 913.056 301.868 913.173 301.208 913.408C300.548 913.628 299.99 913.929 299.536 914.31L298.656 912.726C299.257 912.242 299.976 911.875 300.812 911.626C301.648 911.362 302.535 911.23 303.474 911.23ZM302.99 921.504C303.796 921.504 304.493 921.328 305.08 920.976C305.666 920.609 306.092 920.096 306.356 919.436V917.808H303.1C301.31 917.808 300.416 918.409 300.416 919.612C300.416 920.199 300.643 920.661 301.098 920.998C301.552 921.335 302.183 921.504 302.99 921.504ZM141.444 938.34V950H139.332V940.188H132.754V950H130.642V938.34H141.444ZM151.712 938.23C152.842 938.23 153.854 938.479 154.748 938.978C155.643 939.477 156.34 940.173 156.838 941.068C157.352 941.963 157.608 942.997 157.608 944.17C157.608 945.343 157.352 946.385 156.838 947.294C156.34 948.189 155.643 948.885 154.748 949.384C153.854 949.883 152.842 950.132 151.712 950.132C150.876 950.132 150.106 949.971 149.402 949.648C148.713 949.325 148.126 948.856 147.642 948.24V954.268H145.53V938.34H147.554V940.188C148.024 939.543 148.618 939.059 149.336 938.736C150.055 938.399 150.847 938.23 151.712 938.23ZM151.536 948.284C152.284 948.284 152.952 948.115 153.538 947.778C154.14 947.426 154.609 946.942 154.946 946.326C155.298 945.695 155.474 944.977 155.474 944.17C155.474 943.363 155.298 942.652 154.946 942.036C154.609 941.405 154.14 940.921 153.538 940.584C152.952 940.247 152.284 940.078 151.536 940.078C150.803 940.078 150.136 940.254 149.534 940.606C148.948 940.943 148.478 941.42 148.126 942.036C147.789 942.652 147.62 943.363 147.62 944.17C147.62 944.977 147.789 945.695 148.126 946.326C148.464 946.942 148.933 947.426 149.534 947.778C150.136 948.115 150.803 948.284 151.536 948.284ZM171.215 944.236C171.215 944.397 171.2 944.61 171.171 944.874H161.711C161.843 945.901 162.29 946.729 163.053 947.36C163.83 947.976 164.791 948.284 165.935 948.284C167.328 948.284 168.45 947.815 169.301 946.876L170.467 948.24C169.939 948.856 169.279 949.325 168.487 949.648C167.71 949.971 166.837 950.132 165.869 950.132C164.637 950.132 163.544 949.883 162.591 949.384C161.638 948.871 160.897 948.159 160.369 947.25C159.856 946.341 159.599 945.314 159.599 944.17C159.599 943.041 159.848 942.021 160.347 941.112C160.86 940.203 161.557 939.499 162.437 939C163.332 938.487 164.336 938.23 165.451 938.23C166.566 938.23 167.556 938.487 168.421 939C169.301 939.499 169.983 940.203 170.467 941.112C170.966 942.021 171.215 943.063 171.215 944.236ZM165.451 940.012C164.439 940.012 163.588 940.32 162.899 940.936C162.224 941.552 161.828 942.359 161.711 943.356H169.191C169.074 942.373 168.67 941.574 167.981 940.958C167.306 940.327 166.463 940.012 165.451 940.012ZM187.933 938.34V950H186.019V941.486L181.663 948.68H180.739L176.427 941.464V950H174.491V938.34H176.669L181.245 946.216L185.953 938.34H187.933ZM192.044 938.34H194.156V950H192.044V938.34ZM193.1 936.096C192.689 936.096 192.345 935.964 192.066 935.7C191.802 935.436 191.67 935.113 191.67 934.732C191.67 934.351 191.802 934.028 192.066 933.764C192.345 933.485 192.689 933.346 193.1 933.346C193.511 933.346 193.848 933.478 194.112 933.742C194.391 933.991 194.53 934.307 194.53 934.688C194.53 935.084 194.391 935.421 194.112 935.7C193.848 935.964 193.511 936.096 193.1 936.096ZM207.625 938.34V950H205.733V946.304H202.345H202.103L199.551 950H197.285L200.123 946.018C199.243 945.754 198.568 945.321 198.099 944.72C197.629 944.104 197.395 943.341 197.395 942.432C197.395 941.097 197.849 940.085 198.759 939.396C199.668 938.692 200.922 938.34 202.521 938.34H207.625ZM199.551 942.498C199.551 943.275 199.793 943.855 200.277 944.236C200.775 944.603 201.516 944.786 202.499 944.786H205.733V940.188H202.587C200.563 940.188 199.551 940.958 199.551 942.498ZM231.095 938.34V950H229.181V941.486L224.825 948.68H223.901L219.589 941.464V950H217.653V938.34H219.831L224.407 946.216L229.115 938.34H231.095ZM239.364 938.23C240.977 938.23 242.209 938.626 243.06 939.418C243.925 940.21 244.358 941.391 244.358 942.96V950H242.356V948.46C242.004 949.003 241.498 949.421 240.838 949.714C240.193 949.993 239.423 950.132 238.528 950.132C237.223 950.132 236.174 949.817 235.382 949.186C234.605 948.555 234.216 947.727 234.216 946.7C234.216 945.673 234.59 944.852 235.338 944.236C236.086 943.605 237.274 943.29 238.902 943.29H242.246V942.872C242.246 941.963 241.982 941.266 241.454 940.782C240.926 940.298 240.149 940.056 239.122 940.056C238.433 940.056 237.758 940.173 237.098 940.408C236.438 940.628 235.881 940.929 235.426 941.31L234.546 939.726C235.147 939.242 235.866 938.875 236.702 938.626C237.538 938.362 238.425 938.23 239.364 938.23ZM238.88 948.504C239.687 948.504 240.383 948.328 240.97 947.976C241.557 947.609 241.982 947.096 242.246 946.436V944.808H238.99C237.201 944.808 236.306 945.409 236.306 946.612C236.306 947.199 236.533 947.661 236.988 947.998C237.443 948.335 238.073 948.504 238.88 948.504ZM256.741 940.188H250.273V950H248.161V938.34H256.741V940.188ZM263.061 938.23C264.675 938.23 265.907 938.626 266.757 939.418C267.623 940.21 268.055 941.391 268.055 942.96V950H266.053V948.46C265.701 949.003 265.195 949.421 264.535 949.714C263.89 949.993 263.12 950.132 262.225 950.132C260.92 950.132 259.871 949.817 259.079 949.186C258.302 948.555 257.913 947.727 257.913 946.7C257.913 945.673 258.287 944.852 259.035 944.236C259.783 943.605 260.971 943.29 262.599 943.29H265.943V942.872C265.943 941.963 265.679 941.266 265.151 940.782C264.623 940.298 263.846 940.056 262.819 940.056C262.13 940.056 261.455 940.173 260.795 940.408C260.135 940.628 259.578 940.929 259.123 941.31L258.243 939.726C258.845 939.242 259.563 938.875 260.399 938.626C261.235 938.362 262.123 938.23 263.061 938.23ZM262.577 948.504C263.384 948.504 264.081 948.328 264.667 947.976C265.254 947.609 265.679 947.096 265.943 946.436V944.808H262.687C260.898 944.808 260.003 945.409 260.003 946.612C260.003 947.199 260.231 947.661 260.685 947.998C261.14 948.335 261.771 948.504 262.577 948.504ZM277.979 943.928C278.756 944.133 279.358 944.463 279.783 944.918C280.208 945.373 280.421 945.937 280.421 946.612C280.421 947.301 280.186 947.917 279.717 948.46C279.248 948.988 278.595 949.406 277.759 949.714C276.938 950.007 276.014 950.154 274.987 950.154C274.122 950.154 273.271 950.044 272.435 949.824C271.614 949.589 270.88 949.259 270.235 948.834L270.873 947.228C271.43 947.58 272.068 947.859 272.787 948.064C273.506 948.255 274.232 948.35 274.965 948.35C275.962 948.35 276.754 948.181 277.341 947.844C277.942 947.492 278.243 947.023 278.243 946.436C278.243 945.893 278.001 945.475 277.517 945.182C277.048 944.889 276.38 944.742 275.515 944.742H273.381V943.224H275.361C276.153 943.224 276.776 943.085 277.231 942.806C277.686 942.527 277.913 942.146 277.913 941.662C277.913 941.134 277.642 940.723 277.099 940.43C276.571 940.137 275.852 939.99 274.943 939.99C273.784 939.99 272.56 940.291 271.269 940.892L270.697 939.264C272.12 938.545 273.608 938.186 275.163 938.186C276.102 938.186 276.945 938.318 277.693 938.582C278.441 938.846 279.028 939.22 279.453 939.704C279.878 940.188 280.091 940.738 280.091 941.354C280.091 941.926 279.9 942.439 279.519 942.894C279.138 943.349 278.624 943.693 277.979 943.928ZM283.632 938.34H285.744V946.832L292.894 938.34H294.808V950H292.696V941.508L285.568 950H283.632V938.34ZM298.907 938.34H301.019V943.29H307.663V938.34H309.775V950H307.663V945.116H301.019V950H298.907V938.34ZM324.288 938.34L318.634 951.166C318.135 952.354 317.549 953.19 316.874 953.674C316.214 954.158 315.415 954.4 314.476 954.4C313.904 954.4 313.347 954.305 312.804 954.114C312.276 953.938 311.836 953.674 311.484 953.322L312.386 951.738C312.987 952.31 313.684 952.596 314.476 952.596C314.989 952.596 315.415 952.457 315.752 952.178C316.104 951.914 316.419 951.452 316.698 950.792L317.072 949.978L311.924 938.34H314.124L318.194 947.668L322.22 938.34H324.288Z" fill="black"/>
	<path d="M113.736 371.192C114.493 371.373 115.064 371.699 115.448 372.168C115.842 372.627 116.04 373.219 116.04 373.944C116.04 374.915 115.682 375.667 114.968 376.2C114.264 376.733 113.234 377 111.88 377H106.76V365.8H111.576C112.802 365.8 113.757 366.051 114.44 366.552C115.133 367.043 115.48 367.752 115.48 368.68C115.48 369.288 115.325 369.805 115.016 370.232C114.717 370.659 114.29 370.979 113.736 371.192ZM108.344 370.728H111.464C112.242 370.728 112.834 370.573 113.24 370.264C113.656 369.955 113.864 369.501 113.864 368.904C113.864 368.307 113.656 367.853 113.24 367.544C112.824 367.224 112.232 367.064 111.464 367.064H108.344V370.728ZM111.848 375.736C113.565 375.736 114.424 375.096 114.424 373.816C114.424 373.176 114.205 372.707 113.768 372.408C113.341 372.099 112.701 371.944 111.848 371.944H108.344V375.736H111.848ZM118.457 368.52H119.993V374.696L125.193 368.52H126.585V377H125.049V370.824L119.865 377H118.457V368.52ZM132.862 373.416H131.102V377H129.566V368.52H131.102V372.104H132.894L135.646 368.52H137.294L134.078 372.6L137.518 377H135.71L132.862 373.416ZM142.479 377.096C141.637 377.096 140.879 376.909 140.207 376.536C139.535 376.163 139.007 375.651 138.623 375C138.25 374.339 138.063 373.592 138.063 372.76C138.063 371.928 138.25 371.187 138.623 370.536C139.007 369.875 139.535 369.363 140.207 369C140.879 368.627 141.637 368.44 142.479 368.44C143.322 368.44 144.074 368.627 144.735 369C145.407 369.363 145.93 369.875 146.303 370.536C146.687 371.187 146.879 371.928 146.879 372.76C146.879 373.592 146.687 374.339 146.303 375C145.93 375.651 145.407 376.163 144.735 376.536C144.074 376.909 143.322 377.096 142.479 377.096ZM142.479 375.752C143.023 375.752 143.509 375.629 143.935 375.384C144.373 375.128 144.714 374.776 144.959 374.328C145.205 373.869 145.327 373.347 145.327 372.76C145.327 372.173 145.205 371.656 144.959 371.208C144.714 370.749 144.373 370.397 143.935 370.152C143.509 369.907 143.023 369.784 142.479 369.784C141.935 369.784 141.445 369.907 141.007 370.152C140.581 370.397 140.239 370.749 139.983 371.208C139.738 371.656 139.615 372.173 139.615 372.76C139.615 373.347 139.738 373.869 139.983 374.328C140.239 374.776 140.581 375.128 141.007 375.384C141.445 375.629 141.935 375.752 142.479 375.752ZM149.097 368.52H150.633V372.12H155.465V368.52H157.001V377H155.465V373.448H150.633V377H149.097V368.52ZM163.012 368.44C164.185 368.44 165.081 368.728 165.7 369.304C166.329 369.88 166.644 370.739 166.644 371.88V377H165.188V375.88C164.932 376.275 164.564 376.579 164.084 376.792C163.615 376.995 163.055 377.096 162.404 377.096C161.455 377.096 160.692 376.867 160.116 376.408C159.551 375.949 159.268 375.347 159.268 374.6C159.268 373.853 159.54 373.256 160.084 372.808C160.628 372.349 161.492 372.12 162.676 372.12H165.108V371.816C165.108 371.155 164.916 370.648 164.532 370.296C164.148 369.944 163.583 369.768 162.836 369.768C162.335 369.768 161.844 369.853 161.364 370.024C160.884 370.184 160.479 370.403 160.148 370.68L159.508 369.528C159.945 369.176 160.468 368.909 161.076 368.728C161.684 368.536 162.329 368.44 163.012 368.44ZM162.66 375.912C163.247 375.912 163.753 375.784 164.18 375.528C164.607 375.261 164.916 374.888 165.108 374.408V373.224H162.74C161.439 373.224 160.788 373.661 160.788 374.536C160.788 374.963 160.953 375.299 161.284 375.544C161.615 375.789 162.073 375.912 162.66 375.912ZM169.41 368.52H170.946V372.12H175.778V368.52H177.314V377H175.778V373.448H170.946V377H169.41V368.52ZM180.301 368.52H181.837V372.12H186.669V368.52H188.205V377H186.669V373.448H181.837V377H180.301V368.52ZM197.991 368.52V377H196.615V374.312H194.151H193.975L192.119 377H190.471L192.535 374.104C191.895 373.912 191.404 373.597 191.063 373.16C190.722 372.712 190.551 372.157 190.551 371.496C190.551 370.525 190.882 369.789 191.543 369.288C192.204 368.776 193.116 368.52 194.279 368.52H197.991ZM192.119 371.544C192.119 372.109 192.295 372.531 192.647 372.808C193.01 373.075 193.548 373.208 194.263 373.208H196.615V369.864H194.327C192.855 369.864 192.119 370.424 192.119 371.544ZM213.141 368.52V377H211.605V369.864H206.821V377H205.285V368.52H213.141ZM223.393 368.52V377H221.857V369.864H218.209L218.113 371.752C218.06 372.893 217.958 373.848 217.809 374.616C217.66 375.373 217.414 375.981 217.073 376.44C216.732 376.899 216.257 377.128 215.649 377.128C215.372 377.128 215.057 377.08 214.705 376.984L214.801 375.688C214.94 375.72 215.068 375.736 215.185 375.736C215.612 375.736 215.932 375.549 216.145 375.176C216.358 374.803 216.497 374.36 216.561 373.848C216.625 373.336 216.684 372.605 216.737 371.656L216.881 368.52H223.393ZM229.387 368.44C230.56 368.44 231.456 368.728 232.075 369.304C232.704 369.88 233.019 370.739 233.019 371.88V377H231.563V375.88C231.307 376.275 230.939 376.579 230.459 376.792C229.99 376.995 229.43 377.096 228.779 377.096C227.83 377.096 227.067 376.867 226.491 376.408C225.926 375.949 225.643 375.347 225.643 374.6C225.643 373.853 225.915 373.256 226.459 372.808C227.003 372.349 227.867 372.12 229.051 372.12H231.483V371.816C231.483 371.155 231.291 370.648 230.907 370.296C230.523 369.944 229.958 369.768 229.211 369.768C228.71 369.768 228.219 369.853 227.739 370.024C227.259 370.184 226.854 370.403 226.523 370.68L225.883 369.528C226.32 369.176 226.843 368.909 227.451 368.728C228.059 368.536 228.704 368.44 229.387 368.44ZM229.035 375.912C229.622 375.912 230.128 375.784 230.555 375.528C230.982 375.261 231.291 374.888 231.483 374.408V373.224H229.115C227.814 373.224 227.163 373.661 227.163 374.536C227.163 374.963 227.328 375.299 227.659 375.544C227.99 375.789 228.448 375.912 229.035 375.912ZM235.785 368.52H237.321V372.12H242.153V368.52H243.689V377H242.153V373.448H237.321V377H235.785V368.52ZM254.244 368.52L250.132 377.848C249.769 378.712 249.342 379.32 248.852 379.672C248.372 380.024 247.79 380.2 247.108 380.2C246.692 380.2 246.286 380.131 245.892 379.992C245.508 379.864 245.188 379.672 244.931 379.416L245.588 378.264C246.025 378.68 246.532 378.888 247.108 378.888C247.481 378.888 247.79 378.787 248.036 378.584C248.292 378.392 248.521 378.056 248.724 377.576L248.996 376.984L245.252 368.52H246.852L249.812 375.304L252.74 368.52H254.244ZM264.705 372.584C265.27 372.733 265.708 372.973 266.017 373.304C266.326 373.635 266.481 374.045 266.481 374.536C266.481 375.037 266.31 375.485 265.969 375.88C265.628 376.264 265.153 376.568 264.545 376.792C263.948 377.005 263.276 377.112 262.529 377.112C261.9 377.112 261.281 377.032 260.673 376.872C260.076 376.701 259.542 376.461 259.073 376.152L259.537 374.984C259.942 375.24 260.406 375.443 260.929 375.592C261.452 375.731 261.98 375.8 262.513 375.8C263.238 375.8 263.814 375.677 264.241 375.432C264.678 375.176 264.897 374.835 264.897 374.408C264.897 374.013 264.721 373.709 264.369 373.496C264.028 373.283 263.542 373.176 262.913 373.176H261.361V372.072H262.801C263.377 372.072 263.83 371.971 264.161 371.768C264.492 371.565 264.657 371.288 264.657 370.936C264.657 370.552 264.46 370.253 264.065 370.04C263.681 369.827 263.158 369.72 262.497 369.72C261.654 369.72 260.764 369.939 259.825 370.376L259.409 369.192C260.444 368.669 261.526 368.408 262.657 368.408C263.34 368.408 263.953 368.504 264.497 368.696C265.041 368.888 265.468 369.16 265.777 369.512C266.086 369.864 266.241 370.264 266.241 370.712C266.241 371.128 266.102 371.501 265.825 371.832C265.548 372.163 265.174 372.413 264.705 372.584ZM280.969 368.52V377H279.433V369.864H274.649V377H273.113V368.52H280.969ZM287.573 377.096C286.73 377.096 285.973 376.909 285.301 376.536C284.629 376.163 284.101 375.651 283.717 375C283.344 374.339 283.157 373.592 283.157 372.76C283.157 371.928 283.344 371.187 283.717 370.536C284.101 369.875 284.629 369.363 285.301 369C285.973 368.627 286.73 368.44 287.573 368.44C288.416 368.44 289.168 368.627 289.829 369C290.501 369.363 291.024 369.875 291.397 370.536C291.781 371.187 291.973 371.928 291.973 372.76C291.973 373.592 291.781 374.339 291.397 375C291.024 375.651 290.501 376.163 289.829 376.536C289.168 376.909 288.416 377.096 287.573 377.096ZM287.573 375.752C288.117 375.752 288.602 375.629 289.029 375.384C289.466 375.128 289.808 374.776 290.053 374.328C290.298 373.869 290.421 373.347 290.421 372.76C290.421 372.173 290.298 371.656 290.053 371.208C289.808 370.749 289.466 370.397 289.029 370.152C288.602 369.907 288.117 369.784 287.573 369.784C287.029 369.784 286.538 369.907 286.101 370.152C285.674 370.397 285.333 370.749 285.077 371.208C284.832 371.656 284.709 372.173 284.709 372.76C284.709 373.347 284.832 373.869 285.077 374.328C285.333 374.776 285.674 375.128 286.101 375.384C286.538 375.629 287.029 375.752 287.573 375.752ZM300.959 368.52V377H299.423V373.576C298.506 374.003 297.594 374.216 296.687 374.216C295.631 374.216 294.815 373.971 294.239 373.48C293.663 372.989 293.375 372.253 293.375 371.272V368.52H294.911V371.176C294.911 371.763 295.092 372.205 295.455 372.504C295.828 372.803 296.346 372.952 297.007 372.952C297.754 372.952 298.559 372.765 299.423 372.392V368.52H300.959ZM306.965 368.44C308.138 368.44 309.034 368.728 309.653 369.304C310.282 369.88 310.597 370.739 310.597 371.88V377H309.141V375.88C308.885 376.275 308.517 376.579 308.037 376.792C307.568 376.995 307.008 377.096 306.357 377.096C305.408 377.096 304.645 376.867 304.069 376.408C303.504 375.949 303.221 375.347 303.221 374.6C303.221 373.853 303.493 373.256 304.037 372.808C304.581 372.349 305.445 372.12 306.629 372.12H309.061V371.816C309.061 371.155 308.869 370.648 308.485 370.296C308.101 369.944 307.536 369.768 306.789 369.768C306.288 369.768 305.797 369.853 305.317 370.024C304.837 370.184 304.432 370.403 304.101 370.68L303.461 369.528C303.898 369.176 304.421 368.909 305.029 368.728C305.637 368.536 306.282 368.44 306.965 368.44ZM306.613 375.912C307.2 375.912 307.706 375.784 308.133 375.528C308.56 375.261 308.869 374.888 309.061 374.408V373.224H306.693C305.392 373.224 304.741 373.661 304.741 374.536C304.741 374.963 304.906 375.299 305.237 375.544C305.568 375.789 306.026 375.912 306.613 375.912ZM319.683 369.864H316.579V377H315.043V369.864H311.939V368.52H319.683V369.864ZM324.55 373.416H322.79V377H321.254V368.52H322.79V372.104H324.582L327.334 368.52H328.982L325.766 372.6L329.206 377H327.398L324.55 373.416ZM337.9 368.52L333.788 377.848C333.425 378.712 332.998 379.32 332.508 379.672C332.028 380.024 331.446 380.2 330.764 380.2C330.348 380.2 329.942 380.131 329.548 379.992C329.164 379.864 328.844 379.672 328.588 379.416L329.244 378.264C329.681 378.68 330.188 378.888 330.764 378.888C331.137 378.888 331.446 378.787 331.692 378.584C331.948 378.392 332.177 378.056 332.38 377.576L332.652 376.984L328.908 368.52H330.508L333.468 375.304L336.396 368.52H337.9ZM153.389 388.52V397H151.997V390.808L148.829 396.04H148.157L145.021 390.792V397H143.613V388.52H145.197L148.525 394.248L151.949 388.52H153.389ZM156.379 388.52H157.915V397H156.379V388.52ZM157.147 386.888C156.848 386.888 156.597 386.792 156.395 386.6C156.203 386.408 156.107 386.173 156.107 385.896C156.107 385.619 156.203 385.384 156.395 385.192C156.597 384.989 156.848 384.888 157.147 384.888C157.445 384.888 157.691 384.984 157.883 385.176C158.085 385.357 158.187 385.587 158.187 385.864C158.187 386.152 158.085 386.397 157.883 386.6C157.691 386.792 157.445 386.888 157.147 386.888ZM164.606 397.096C163.742 397.096 162.969 396.909 162.286 396.536C161.614 396.163 161.086 395.651 160.702 395C160.318 394.339 160.126 393.592 160.126 392.76C160.126 391.928 160.318 391.187 160.702 390.536C161.086 389.875 161.614 389.363 162.286 389C162.969 388.627 163.742 388.44 164.606 388.44C165.374 388.44 166.057 388.595 166.654 388.904C167.262 389.213 167.731 389.661 168.062 390.248L166.894 391C166.627 390.595 166.297 390.291 165.902 390.088C165.507 389.885 165.07 389.784 164.59 389.784C164.035 389.784 163.534 389.907 163.086 390.152C162.649 390.397 162.302 390.749 162.046 391.208C161.801 391.656 161.678 392.173 161.678 392.76C161.678 393.357 161.801 393.885 162.046 394.344C162.302 394.792 162.649 395.139 163.086 395.384C163.534 395.629 164.035 395.752 164.59 395.752C165.07 395.752 165.507 395.651 165.902 395.448C166.297 395.245 166.627 394.941 166.894 394.536L168.062 395.272C167.731 395.859 167.262 396.312 166.654 396.632C166.057 396.941 165.374 397.096 164.606 397.096ZM176.585 388.52V397H175.209V394.312H172.745H172.569L170.713 397H169.065L171.129 394.104C170.489 393.912 169.998 393.597 169.657 393.16C169.316 392.712 169.145 392.157 169.145 391.496C169.145 390.525 169.476 389.789 170.137 389.288C170.798 388.776 171.71 388.52 172.873 388.52H176.585ZM170.713 391.544C170.713 392.109 170.889 392.531 171.241 392.808C171.604 393.075 172.142 393.208 172.857 393.208H175.209V389.864H172.921C171.449 389.864 170.713 390.424 170.713 391.544ZM188.638 395.656V399.032H187.182V397H179.582V388.52H181.118V395.656H185.758V388.52H187.294V395.656H188.638ZM197.429 388.52V397H196.053V394.312H193.589H193.413L191.557 397H189.909L191.973 394.104C191.333 393.912 190.842 393.597 190.501 393.16C190.159 392.712 189.989 392.157 189.989 391.496C189.989 390.525 190.319 389.789 190.981 389.288C191.642 388.776 192.554 388.52 193.717 388.52H197.429ZM191.557 391.544C191.557 392.109 191.733 392.531 192.085 392.808C192.447 393.075 192.986 393.208 193.701 393.208H196.053V389.864H193.765C192.293 389.864 191.557 390.424 191.557 391.544ZM212.578 388.52V397H211.042V389.864H206.258V397H204.722V388.52H212.578ZM219.183 397.096C218.34 397.096 217.583 396.909 216.911 396.536C216.239 396.163 215.711 395.651 215.327 395C214.953 394.339 214.767 393.592 214.767 392.76C214.767 391.928 214.953 391.187 215.327 390.536C215.711 389.875 216.239 389.363 216.911 389C217.583 388.627 218.34 388.44 219.183 388.44C220.025 388.44 220.777 388.627 221.439 389C222.111 389.363 222.633 389.875 223.007 390.536C223.391 391.187 223.583 391.928 223.583 392.76C223.583 393.592 223.391 394.339 223.007 395C222.633 395.651 222.111 396.163 221.439 396.536C220.777 396.909 220.025 397.096 219.183 397.096ZM219.183 395.752C219.727 395.752 220.212 395.629 220.639 395.384C221.076 395.128 221.417 394.776 221.663 394.328C221.908 393.869 222.031 393.347 222.031 392.76C222.031 392.173 221.908 391.656 221.663 391.208C221.417 390.749 221.076 390.397 220.639 390.152C220.212 389.907 219.727 389.784 219.183 389.784C218.639 389.784 218.148 389.907 217.711 390.152C217.284 390.397 216.943 390.749 216.687 391.208C216.441 391.656 216.319 392.173 216.319 392.76C216.319 393.347 216.441 393.869 216.687 394.328C216.943 394.776 217.284 395.128 217.711 395.384C218.148 395.629 218.639 395.752 219.183 395.752ZM233.793 397.096C232.929 397.096 232.156 396.909 231.473 396.536C230.801 396.163 230.273 395.651 229.889 395C229.505 394.339 229.313 393.592 229.313 392.76C229.313 391.928 229.505 391.187 229.889 390.536C230.273 389.875 230.801 389.363 231.473 389C232.156 388.627 232.929 388.44 233.793 388.44C234.561 388.44 235.244 388.595 235.841 388.904C236.449 389.213 236.919 389.661 237.249 390.248L236.081 391C235.815 390.595 235.484 390.291 235.089 390.088C234.695 389.885 234.257 389.784 233.777 389.784C233.223 389.784 232.721 389.907 232.273 390.152C231.836 390.397 231.489 390.749 231.233 391.208C230.988 391.656 230.865 392.173 230.865 392.76C230.865 393.357 230.988 393.885 231.233 394.344C231.489 394.792 231.836 395.139 232.273 395.384C232.721 395.629 233.223 395.752 233.777 395.752C234.257 395.752 234.695 395.651 235.089 395.448C235.484 395.245 235.815 394.941 236.081 394.536L237.249 395.272C236.919 395.859 236.449 396.312 235.841 396.632C235.244 396.941 234.561 397.096 233.793 397.096ZM243.158 391.4C244.235 391.411 245.057 391.656 245.622 392.136C246.187 392.616 246.47 393.293 246.47 394.168C246.47 395.085 246.161 395.795 245.542 396.296C244.934 396.787 244.059 397.027 242.918 397.016L239.238 397V388.52H240.774V391.384L243.158 391.4ZM242.79 395.848C243.483 395.859 244.006 395.72 244.358 395.432C244.721 395.144 244.902 394.717 244.902 394.152C244.902 393.597 244.726 393.192 244.374 392.936C244.033 392.68 243.505 392.547 242.79 392.536L240.774 392.504V395.832L242.79 395.848ZM252.073 397.096C251.23 397.096 250.473 396.909 249.801 396.536C249.129 396.163 248.601 395.651 248.217 395C247.844 394.339 247.657 393.592 247.657 392.76C247.657 391.928 247.844 391.187 248.217 390.536C248.601 389.875 249.129 389.363 249.801 389C250.473 388.627 251.23 388.44 252.073 388.44C252.916 388.44 253.668 388.627 254.329 389C255.001 389.363 255.524 389.875 255.897 390.536C256.281 391.187 256.473 391.928 256.473 392.76C256.473 393.592 256.281 394.339 255.897 395C255.524 395.651 255.001 396.163 254.329 396.536C253.668 396.909 252.916 397.096 252.073 397.096ZM252.073 395.752C252.617 395.752 253.102 395.629 253.529 395.384C253.966 395.128 254.308 394.776 254.553 394.328C254.798 393.869 254.921 393.347 254.921 392.76C254.921 392.173 254.798 391.656 254.553 391.208C254.308 390.749 253.966 390.397 253.529 390.152C253.102 389.907 252.617 389.784 252.073 389.784C251.529 389.784 251.038 389.907 250.601 390.152C250.174 390.397 249.833 390.749 249.577 391.208C249.332 391.656 249.209 392.173 249.209 392.76C249.209 393.347 249.332 393.869 249.577 394.328C249.833 394.776 250.174 395.128 250.601 395.384C251.038 395.629 251.529 395.752 252.073 395.752ZM264.931 389.864H260.227V397H258.691V388.52H264.931V389.864ZM269.761 397.096C268.918 397.096 268.161 396.909 267.489 396.536C266.817 396.163 266.289 395.651 265.905 395C265.531 394.339 265.345 393.592 265.345 392.76C265.345 391.928 265.531 391.187 265.905 390.536C266.289 389.875 266.817 389.363 267.489 389C268.161 388.627 268.918 388.44 269.761 388.44C270.603 388.44 271.355 388.627 272.017 389C272.689 389.363 273.211 389.875 273.585 390.536C273.969 391.187 274.161 391.928 274.161 392.76C274.161 393.592 273.969 394.339 273.585 395C273.211 395.651 272.689 396.163 272.017 396.536C271.355 396.909 270.603 397.096 269.761 397.096ZM269.761 395.752C270.305 395.752 270.79 395.629 271.217 395.384C271.654 395.128 271.995 394.776 272.241 394.328C272.486 393.869 272.609 393.347 272.609 392.76C272.609 392.173 272.486 391.656 272.241 391.208C271.995 390.749 271.654 390.397 271.217 390.152C270.79 389.907 270.305 389.784 269.761 389.784C269.217 389.784 268.726 389.907 268.289 390.152C267.862 390.397 267.521 390.749 267.265 391.208C267.019 391.656 266.897 392.173 266.897 392.76C266.897 393.347 267.019 393.869 267.265 394.328C267.521 394.776 267.862 395.128 268.289 395.384C268.726 395.629 269.217 395.752 269.761 395.752ZM284.94 395.656V398.968H283.5V397H276.412V398.968H274.956V395.656H275.404C275.948 395.624 276.321 395.24 276.524 394.504C276.727 393.768 276.865 392.728 276.94 391.384L277.068 388.52H283.644V395.656H284.94ZM278.348 391.496C278.305 392.563 278.215 393.448 278.076 394.152C277.948 394.845 277.708 395.347 277.356 395.656H282.108V389.864H278.428L278.348 391.496ZM286.941 388.52H288.477V392.12H293.309V388.52H294.845V397H293.309V393.448H288.477V397H286.941V388.52ZM297.832 388.52H299.368V397H297.832V388.52ZM298.6 386.888C298.301 386.888 298.05 386.792 297.848 386.6C297.656 386.408 297.56 386.173 297.56 385.896C297.56 385.619 297.656 385.384 297.848 385.192C298.05 384.989 298.301 384.888 298.6 384.888C298.898 384.888 299.144 384.984 299.336 385.176C299.538 385.357 299.64 385.587 299.64 385.864C299.64 386.152 299.538 386.397 299.336 386.6C299.144 386.792 298.898 386.888 298.6 386.888Z" fill="black"/>
	<line x1="178" y1="354.5" x2="262" y2="354.5" stroke="#FFDD00" stroke-width="5"/>
	<path d="M196.21 351L196.188 339.78L190.622 349.13H189.61L184.044 339.846V351H181.932V335.6H183.736L190.16 346.424L196.496 335.6H198.3L198.322 351H196.21ZM202.764 339.34H204.876V351H202.764V339.34ZM203.82 337.096C203.409 337.096 203.064 336.964 202.786 336.7C202.522 336.436 202.39 336.113 202.39 335.732C202.39 335.351 202.522 335.028 202.786 334.764C203.064 334.485 203.409 334.346 203.82 334.346C204.23 334.346 204.568 334.478 204.832 334.742C205.11 334.991 205.25 335.307 205.25 335.688C205.25 336.084 205.11 336.421 204.832 336.7C204.568 336.964 204.23 337.096 203.82 337.096ZM214.076 351.132C212.888 351.132 211.825 350.875 210.886 350.362C209.962 349.849 209.236 349.145 208.708 348.25C208.18 347.341 207.916 346.314 207.916 345.17C207.916 344.026 208.18 343.007 208.708 342.112C209.236 341.203 209.962 340.499 210.886 340C211.825 339.487 212.888 339.23 214.076 339.23C215.132 339.23 216.071 339.443 216.892 339.868C217.728 340.293 218.374 340.909 218.828 341.716L217.222 342.75C216.856 342.193 216.401 341.775 215.858 341.496C215.316 341.217 214.714 341.078 214.054 341.078C213.292 341.078 212.602 341.247 211.986 341.584C211.385 341.921 210.908 342.405 210.556 343.036C210.219 343.652 210.05 344.363 210.05 345.17C210.05 345.991 210.219 346.717 210.556 347.348C210.908 347.964 211.385 348.441 211.986 348.778C212.602 349.115 213.292 349.284 214.054 349.284C214.714 349.284 215.316 349.145 215.858 348.866C216.401 348.587 216.856 348.169 217.222 347.612L218.828 348.624C218.374 349.431 217.728 350.054 216.892 350.494C216.071 350.919 215.132 351.132 214.076 351.132ZM230.547 339.34V351H228.655V347.304H225.267H225.025L222.473 351H220.207L223.045 347.018C222.165 346.754 221.491 346.321 221.021 345.72C220.552 345.104 220.317 344.341 220.317 343.432C220.317 342.097 220.772 341.085 221.681 340.396C222.591 339.692 223.845 339.34 225.443 339.34H230.547ZM222.473 343.498C222.473 344.275 222.715 344.855 223.199 345.236C223.698 345.603 224.439 345.786 225.421 345.786H228.655V341.188H225.509C223.485 341.188 222.473 341.958 222.473 343.498ZM247.12 349.152V353.794H245.118V351H234.668V339.34H236.78V349.152H243.16V339.34H245.272V349.152H247.12ZM255.248 343.3C256.729 343.315 257.858 343.652 258.636 344.312C259.413 344.972 259.802 345.903 259.802 347.106C259.802 348.367 259.376 349.343 258.526 350.032C257.69 350.707 256.487 351.037 254.918 351.022L249.858 351V339.34H251.97V343.278L255.248 343.3ZM254.742 349.416C255.695 349.431 256.414 349.24 256.898 348.844C257.396 348.448 257.646 347.861 257.646 347.084C257.646 346.321 257.404 345.764 256.92 345.412C256.45 345.06 255.724 344.877 254.742 344.862L251.97 344.818V349.394L254.742 349.416Z" fill="black"/>
	<path d="M141.759 82.192C142.516 82.3733 143.087 82.6987 143.471 83.168C143.866 83.6267 144.063 84.2187 144.063 84.944C144.063 85.9147 143.706 86.6667 142.991 87.2C142.287 87.7333 141.258 88 139.903 88H134.783V76.8H139.599C140.826 76.8 141.78 77.0507 142.463 77.552C143.156 78.0427 143.503 78.752 143.503 79.68C143.503 80.288 143.348 80.8053 143.039 81.232C142.74 81.6587 142.314 81.9787 141.759 82.192ZM136.367 81.728H139.487C140.266 81.728 140.858 81.5733 141.263 81.264C141.679 80.9547 141.887 80.5013 141.887 79.904C141.887 79.3067 141.679 78.8533 141.263 78.544C140.847 78.224 140.255 78.064 139.487 78.064H136.367V81.728ZM139.871 86.736C141.588 86.736 142.447 86.096 142.447 84.816C142.447 84.176 142.228 83.7067 141.791 83.408C141.364 83.0987 140.724 82.944 139.871 82.944H136.367V86.736H139.871ZM146.48 79.52H148.016V85.696L153.216 79.52H154.608V88H153.072V81.824L147.888 88H146.48V79.52ZM160.886 84.416H159.126V88H157.59V79.52H159.126V83.104H160.918L163.67 79.52H165.318L162.102 83.6L165.542 88H163.734L160.886 84.416ZM170.503 88.096C169.66 88.096 168.903 87.9093 168.231 87.536C167.559 87.1627 167.031 86.6507 166.647 86C166.273 85.3387 166.087 84.592 166.087 83.76C166.087 82.928 166.273 82.1867 166.647 81.536C167.031 80.8747 167.559 80.3627 168.231 80C168.903 79.6267 169.66 79.44 170.503 79.44C171.345 79.44 172.097 79.6267 172.759 80C173.431 80.3627 173.953 80.8747 174.327 81.536C174.711 82.1867 174.903 82.928 174.903 83.76C174.903 84.592 174.711 85.3387 174.327 86C173.953 86.6507 173.431 87.1627 172.759 87.536C172.097 87.9093 171.345 88.096 170.503 88.096ZM170.503 86.752C171.047 86.752 171.532 86.6293 171.959 86.384C172.396 86.128 172.737 85.776 172.983 85.328C173.228 84.8693 173.351 84.3467 173.351 83.76C173.351 83.1733 173.228 82.656 172.983 82.208C172.737 81.7493 172.396 81.3973 171.959 81.152C171.532 80.9067 171.047 80.784 170.503 80.784C169.959 80.784 169.468 80.9067 169.031 81.152C168.604 81.3973 168.263 81.7493 168.007 82.208C167.761 82.656 167.639 83.1733 167.639 83.76C167.639 84.3467 167.761 84.8693 168.007 85.328C168.263 85.776 168.604 86.128 169.031 86.384C169.468 86.6293 169.959 86.752 170.503 86.752ZM177.121 79.52H178.657V83.12H183.489V79.52H185.025V88H183.489V84.448H178.657V88H177.121V79.52ZM191.035 79.44C192.209 79.44 193.105 79.728 193.723 80.304C194.353 80.88 194.667 81.7387 194.667 82.88V88H193.211V86.88C192.955 87.2747 192.587 87.5787 192.107 87.792C191.638 87.9947 191.078 88.096 190.427 88.096C189.478 88.096 188.715 87.8667 188.139 87.408C187.574 86.9493 187.291 86.3467 187.291 85.6C187.291 84.8533 187.563 84.256 188.107 83.808C188.651 83.3493 189.515 83.12 190.699 83.12H193.131V82.816C193.131 82.1547 192.939 81.648 192.555 81.296C192.171 80.944 191.606 80.768 190.859 80.768C190.358 80.768 189.867 80.8533 189.387 81.024C188.907 81.184 188.502 81.4027 188.171 81.68L187.531 80.528C187.969 80.176 188.491 79.9093 189.099 79.728C189.707 79.536 190.353 79.44 191.035 79.44ZM190.683 86.912C191.27 86.912 191.777 86.784 192.203 86.528C192.63 86.2613 192.939 85.888 193.131 85.408V84.224H190.763C189.462 84.224 188.811 84.6613 188.811 85.536C188.811 85.9627 188.977 86.2987 189.307 86.544C189.638 86.7893 190.097 86.912 190.683 86.912ZM197.433 79.52H198.969V83.12H203.801V79.52H205.337V88H203.801V84.448H198.969V88H197.433V79.52ZM208.324 79.52H209.86V83.12H214.692V79.52H216.228V88H214.692V84.448H209.86V88H208.324V79.52ZM226.015 79.52V88H224.639V85.312H222.175H221.999L220.143 88H218.495L220.559 85.104C219.919 84.912 219.428 84.5973 219.087 84.16C218.745 83.712 218.575 83.1573 218.575 82.496C218.575 81.5253 218.905 80.7893 219.567 80.288C220.228 79.776 221.14 79.52 222.303 79.52H226.015ZM220.143 82.544C220.143 83.1093 220.319 83.5307 220.671 83.808C221.033 84.0747 221.572 84.208 222.287 84.208H224.639V80.864H222.351C220.879 80.864 220.143 81.424 220.143 82.544ZM241.164 79.52V88H239.628V80.864H234.844V88H233.308V79.52H241.164ZM251.416 79.52V88H249.88V80.864H246.232L246.136 82.752C246.083 83.8933 245.982 84.848 245.832 85.616C245.683 86.3733 245.438 86.9813 245.096 87.44C244.755 87.8987 244.28 88.128 243.672 88.128C243.395 88.128 243.08 88.08 242.728 87.984L242.824 86.688C242.963 86.72 243.091 86.736 243.208 86.736C243.635 86.736 243.955 86.5493 244.168 86.176C244.382 85.8027 244.52 85.36 244.584 84.848C244.648 84.336 244.707 83.6053 244.76 82.656L244.904 79.52H251.416ZM257.41 79.44C258.584 79.44 259.48 79.728 260.098 80.304C260.728 80.88 261.042 81.7387 261.042 82.88V88H259.586V86.88C259.33 87.2747 258.962 87.5787 258.482 87.792C258.013 87.9947 257.453 88.096 256.802 88.096C255.853 88.096 255.09 87.8667 254.514 87.408C253.949 86.9493 253.666 86.3467 253.666 85.6C253.666 84.8533 253.938 84.256 254.482 83.808C255.026 83.3493 255.89 83.12 257.074 83.12H259.506V82.816C259.506 82.1547 259.314 81.648 258.93 81.296C258.546 80.944 257.981 80.768 257.234 80.768C256.733 80.768 256.242 80.8533 255.762 81.024C255.282 81.184 254.877 81.4027 254.546 81.68L253.906 80.528C254.344 80.176 254.866 79.9093 255.474 79.728C256.082 79.536 256.728 79.44 257.41 79.44ZM257.058 86.912C257.645 86.912 258.152 86.784 258.578 86.528C259.005 86.2613 259.314 85.888 259.506 85.408V84.224H257.138C255.837 84.224 255.186 84.6613 255.186 85.536C255.186 85.9627 255.352 86.2987 255.682 86.544C256.013 86.7893 256.472 86.912 257.058 86.912ZM263.808 79.52H265.344V83.12H270.176V79.52H271.712V88H270.176V84.448H265.344V88H263.808V79.52ZM282.267 79.52L278.155 88.848C277.792 89.712 277.366 90.32 276.875 90.672C276.395 91.024 275.814 91.2 275.131 91.2C274.715 91.2 274.31 91.1307 273.915 90.992C273.531 90.864 273.211 90.672 272.955 90.416L273.611 89.264C274.048 89.68 274.555 89.888 275.131 89.888C275.504 89.888 275.814 89.7867 276.059 89.584C276.315 89.392 276.544 89.056 276.747 88.576L277.019 87.984L273.275 79.52H274.875L277.835 86.304L280.763 79.52H282.267ZM288.136 79.52H289.672V83.12H294.504V79.52H296.04V88H294.504V84.448H289.672V88H288.136V79.52ZM302.051 79.44C303.224 79.44 304.12 79.728 304.739 80.304C305.368 80.88 305.683 81.7387 305.683 82.88V88H304.227V86.88C303.971 87.2747 303.603 87.5787 303.123 87.792C302.654 87.9947 302.094 88.096 301.443 88.096C300.494 88.096 299.731 87.8667 299.155 87.408C298.59 86.9493 298.307 86.3467 298.307 85.6C298.307 84.8533 298.579 84.256 299.123 83.808C299.667 83.3493 300.531 83.12 301.715 83.12H304.147V82.816C304.147 82.1547 303.955 81.648 303.571 81.296C303.187 80.944 302.622 80.768 301.875 80.768C301.374 80.768 300.883 80.8533 300.403 81.024C299.923 81.184 299.518 81.4027 299.187 81.68L298.547 80.528C298.984 80.176 299.507 79.9093 300.115 79.728C300.723 79.536 301.368 79.44 302.051 79.44ZM301.699 86.912C302.286 86.912 302.792 86.784 303.219 86.528C303.646 86.2613 303.955 85.888 304.147 85.408V84.224H301.779C300.478 84.224 299.827 84.6613 299.827 85.536C299.827 85.9627 299.992 86.2987 300.323 86.544C300.654 86.7893 301.112 86.912 301.699 86.912ZM189.051 108.096C188.187 108.096 187.414 107.909 186.731 107.536C186.059 107.163 185.531 106.651 185.147 106C184.763 105.339 184.571 104.592 184.571 103.76C184.571 102.928 184.763 102.187 185.147 101.536C185.531 100.875 186.059 100.363 186.731 100C187.414 99.6267 188.187 99.44 189.051 99.44C189.819 99.44 190.502 99.5947 191.099 99.904C191.707 100.213 192.177 100.661 192.507 101.248L191.339 102C191.073 101.595 190.742 101.291 190.347 101.088C189.953 100.885 189.515 100.784 189.035 100.784C188.481 100.784 187.979 100.907 187.531 101.152C187.094 101.397 186.747 101.749 186.491 102.208C186.246 102.656 186.123 103.173 186.123 103.76C186.123 104.357 186.246 104.885 186.491 105.344C186.747 105.792 187.094 106.139 187.531 106.384C187.979 106.629 188.481 106.752 189.035 106.752C189.515 106.752 189.953 106.651 190.347 106.448C190.742 106.245 191.073 105.941 191.339 105.536L192.507 106.272C192.177 106.859 191.707 107.312 191.099 107.632C190.502 107.941 189.819 108.096 189.051 108.096ZM198.416 102.4C199.493 102.411 200.314 102.656 200.88 103.136C201.445 103.616 201.728 104.293 201.728 105.168C201.728 106.085 201.418 106.795 200.8 107.296C200.192 107.787 199.317 108.027 198.176 108.016L194.496 108V99.52H196.032V102.384L198.416 102.4ZM198.048 106.848C198.741 106.859 199.264 106.72 199.616 106.432C199.978 106.144 200.16 105.717 200.16 105.152C200.16 104.597 199.984 104.192 199.632 103.936C199.29 103.68 198.762 103.547 198.048 103.536L196.032 103.504V106.832L198.048 106.848ZM207.331 108.096C206.488 108.096 205.731 107.909 205.059 107.536C204.387 107.163 203.859 106.651 203.475 106C203.102 105.339 202.915 104.592 202.915 103.76C202.915 102.928 203.102 102.187 203.475 101.536C203.859 100.875 204.387 100.363 205.059 100C205.731 99.6267 206.488 99.44 207.331 99.44C208.174 99.44 208.926 99.6267 209.587 100C210.259 100.363 210.782 100.875 211.155 101.536C211.539 102.187 211.731 102.928 211.731 103.76C211.731 104.592 211.539 105.339 211.155 106C210.782 106.651 210.259 107.163 209.587 107.536C208.926 107.909 208.174 108.096 207.331 108.096ZM207.331 106.752C207.875 106.752 208.36 106.629 208.787 106.384C209.224 106.128 209.566 105.776 209.811 105.328C210.056 104.869 210.179 104.347 210.179 103.76C210.179 103.173 210.056 102.656 209.811 102.208C209.566 101.749 209.224 101.397 208.787 101.152C208.36 100.907 207.875 100.784 207.331 100.784C206.787 100.784 206.296 100.907 205.859 101.152C205.432 101.397 205.091 101.749 204.835 102.208C204.59 102.656 204.467 103.173 204.467 103.76C204.467 104.347 204.59 104.869 204.835 105.328C205.091 105.776 205.432 106.128 205.859 106.384C206.296 106.629 206.787 106.752 207.331 106.752ZM220.189 100.864H215.485V108H213.949V99.52H220.189V100.864ZM225.018 108.096C224.176 108.096 223.418 107.909 222.746 107.536C222.074 107.163 221.546 106.651 221.162 106C220.789 105.339 220.602 104.592 220.602 103.76C220.602 102.928 220.789 102.187 221.162 101.536C221.546 100.875 222.074 100.363 222.746 100C223.418 99.6267 224.176 99.44 225.018 99.44C225.861 99.44 226.613 99.6267 227.274 100C227.946 100.363 228.469 100.875 228.842 101.536C229.226 102.187 229.418 102.928 229.418 103.76C229.418 104.592 229.226 105.339 228.842 106C228.469 106.651 227.946 107.163 227.274 107.536C226.613 107.909 225.861 108.096 225.018 108.096ZM225.018 106.752C225.562 106.752 226.048 106.629 226.474 106.384C226.912 106.128 227.253 105.776 227.498 105.328C227.744 104.869 227.866 104.347 227.866 103.76C227.866 103.173 227.744 102.656 227.498 102.208C227.253 101.749 226.912 101.397 226.474 101.152C226.048 100.907 225.562 100.784 225.018 100.784C224.474 100.784 223.984 100.907 223.546 101.152C223.12 101.397 222.778 101.749 222.522 102.208C222.277 102.656 222.154 103.173 222.154 103.76C222.154 104.347 222.277 104.869 222.522 105.328C222.778 105.776 223.12 106.128 223.546 106.384C223.984 106.629 224.474 106.752 225.018 106.752ZM240.198 106.656V109.968H238.758V108H231.67V109.968H230.214V106.656H230.662C231.206 106.624 231.579 106.24 231.782 105.504C231.985 104.768 232.123 103.728 232.198 102.384L232.326 99.52H238.902V106.656H240.198ZM233.606 102.496C233.563 103.563 233.473 104.448 233.334 105.152C233.206 105.845 232.966 106.347 232.614 106.656H237.366V100.864H233.686L233.606 102.496ZM242.199 99.52H243.735V103.12H248.567V99.52H250.103V108H248.567V104.448H243.735V108H242.199V99.52ZM253.09 99.52H254.626V108H253.09V99.52ZM253.858 97.888C253.559 97.888 253.308 97.792 253.106 97.6C252.914 97.408 252.818 97.1733 252.818 96.896C252.818 96.6187 252.914 96.384 253.106 96.192C253.308 95.9893 253.559 95.888 253.858 95.888C254.156 95.888 254.402 95.984 254.594 96.176C254.796 96.3573 254.898 96.5867 254.898 96.864C254.898 97.152 254.796 97.3973 254.594 97.6C254.402 97.792 254.156 97.888 253.858 97.888Z" fill="black"/>
	<line x1="169" y1="70.5" x2="277" y2="70.5" stroke="#FFDD00" stroke-width="5"/>
	<path d="M177.49 67.176C175.95 67.176 174.557 66.8387 173.31 66.164C172.078 65.4747 171.11 64.536 170.406 63.348C169.702 62.1453 169.35 60.796 169.35 59.3C169.35 57.804 169.702 56.462 170.406 55.274C171.11 54.0713 172.085 53.1327 173.332 52.458C174.579 51.7687 175.972 51.424 177.512 51.424C178.715 51.424 179.815 51.6293 180.812 52.04C181.809 52.436 182.66 53.03 183.364 53.822L181.934 55.208C180.775 53.9907 179.331 53.382 177.6 53.382C176.456 53.382 175.422 53.6387 174.498 54.152C173.574 54.6653 172.848 55.3767 172.32 56.286C171.807 57.1807 171.55 58.1853 171.55 59.3C171.55 60.4147 171.807 61.4267 172.32 62.336C172.848 63.2307 173.574 63.9347 174.498 64.448C175.422 64.9613 176.456 65.218 177.6 65.218C179.316 65.218 180.761 64.602 181.934 63.37L183.364 64.756C182.66 65.548 181.802 66.1493 180.79 66.56C179.793 66.9707 178.693 67.176 177.49 67.176ZM191.433 59.3C192.914 59.3147 194.044 59.652 194.821 60.312C195.598 60.972 195.987 61.9033 195.987 63.106C195.987 64.3673 195.562 65.3427 194.711 66.032C193.875 66.7067 192.672 67.0367 191.103 67.022L186.043 67V55.34H188.155V59.278L191.433 59.3ZM190.927 65.416C191.88 65.4307 192.599 65.24 193.083 64.844C193.582 64.448 193.831 63.8613 193.831 63.084C193.831 62.3213 193.589 61.764 193.105 61.412C192.636 61.06 191.91 60.8767 190.927 60.862L188.155 60.818V65.394L190.927 65.416ZM203.691 67.132C202.533 67.132 201.491 66.8753 200.567 66.362C199.643 65.8487 198.917 65.1447 198.389 64.25C197.876 63.3407 197.619 62.314 197.619 61.17C197.619 60.026 197.876 59.0067 198.389 58.112C198.917 57.2027 199.643 56.4987 200.567 56C201.491 55.4867 202.533 55.23 203.691 55.23C204.85 55.23 205.884 55.4867 206.793 56C207.717 56.4987 208.436 57.2027 208.949 58.112C209.477 59.0067 209.741 60.026 209.741 61.17C209.741 62.314 209.477 63.3407 208.949 64.25C208.436 65.1447 207.717 65.8487 206.793 66.362C205.884 66.8753 204.85 67.132 203.691 67.132ZM203.691 65.284C204.439 65.284 205.107 65.1153 205.693 64.778C206.295 64.426 206.764 63.942 207.101 63.326C207.439 62.6953 207.607 61.9767 207.607 61.17C207.607 60.3633 207.439 59.652 207.101 59.036C206.764 58.4053 206.295 57.9213 205.693 57.584C205.107 57.2467 204.439 57.078 203.691 57.078C202.943 57.078 202.269 57.2467 201.667 57.584C201.081 57.9213 200.611 58.4053 200.259 59.036C199.922 59.652 199.753 60.3633 199.753 61.17C199.753 61.9767 199.922 62.6953 200.259 63.326C200.611 63.942 201.081 64.426 201.667 64.778C202.269 65.1153 202.943 65.284 203.691 65.284ZM221.371 57.188H214.903V67H212.791V55.34H221.371V57.188ZM228.012 67.132C226.853 67.132 225.812 66.8753 224.888 66.362C223.964 65.8487 223.238 65.1447 222.71 64.25C222.196 63.3407 221.94 62.314 221.94 61.17C221.94 60.026 222.196 59.0067 222.71 58.112C223.238 57.2027 223.964 56.4987 224.888 56C225.812 55.4867 226.853 55.23 228.012 55.23C229.17 55.23 230.204 55.4867 231.114 56C232.038 56.4987 232.756 57.2027 233.27 58.112C233.798 59.0067 234.062 60.026 234.062 61.17C234.062 62.314 233.798 63.3407 233.27 64.25C232.756 65.1447 232.038 65.8487 231.114 66.362C230.204 66.8753 229.17 67.132 228.012 67.132ZM228.012 65.284C228.76 65.284 229.427 65.1153 230.014 64.778C230.615 64.426 231.084 63.942 231.422 63.326C231.759 62.6953 231.928 61.9767 231.928 61.17C231.928 60.3633 231.759 59.652 231.422 59.036C231.084 58.4053 230.615 57.9213 230.014 57.584C229.427 57.2467 228.76 57.078 228.012 57.078C227.264 57.078 226.589 57.2467 225.988 57.584C225.401 57.9213 224.932 58.4053 224.58 59.036C224.242 59.652 224.074 60.3633 224.074 61.17C224.074 61.9767 224.242 62.6953 224.58 63.326C224.932 63.942 225.401 64.426 225.988 64.778C226.589 65.1153 227.264 65.284 228.012 65.284ZM248.883 65.152V69.706H246.903V67H237.157V69.706H235.155V65.152H235.771C236.519 65.108 237.033 64.58 237.311 63.568C237.59 62.556 237.781 61.126 237.883 59.278L238.059 55.34H247.101V65.152H248.883ZM239.819 59.432C239.761 60.8987 239.636 62.116 239.445 63.084C239.269 64.0373 238.939 64.7267 238.455 65.152H244.989V57.188H239.929L239.819 59.432ZM251.635 55.34H253.747V60.29H260.391V55.34H262.503V67H260.391V62.116H253.747V67H251.635V55.34ZM266.609 55.34H268.721V67H266.609V55.34ZM267.665 53.096C267.255 53.096 266.91 52.964 266.631 52.7C266.367 52.436 266.235 52.1133 266.235 51.732C266.235 51.3507 266.367 51.028 266.631 50.764C266.91 50.4853 267.255 50.346 267.665 50.346C268.076 50.346 268.413 50.478 268.677 50.742C268.956 50.9913 269.095 51.3067 269.095 51.688C269.095 52.084 268.956 52.4213 268.677 52.7C268.413 52.964 268.076 53.096 267.665 53.096Z" fill="black"/>
	<line x1="50" y1="24.5" x2="255" y2="24.5" stroke="#FFDD00" stroke-width="5"/>
	<path d="M61.99 13.014C63.0313 13.2633 63.816 13.7107 64.344 14.356C64.8867 14.9867 65.158 15.8007 65.158 16.798C65.158 18.1327 64.6667 19.1667 63.684 19.9C62.716 20.6333 61.3007 21 59.438 21H52.398V5.6H59.02C60.7067 5.6 62.0193 5.94467 62.958 6.634C63.9113 7.30867 64.388 8.284 64.388 9.56C64.388 10.396 64.1753 11.1073 63.75 11.694C63.3393 12.2807 62.7527 12.7207 61.99 13.014ZM54.576 12.376H58.866C59.9367 12.376 60.7507 12.1633 61.308 11.738C61.88 11.3127 62.166 10.6893 62.166 9.868C62.166 9.04667 61.88 8.42333 61.308 7.998C60.736 7.558 59.922 7.338 58.866 7.338H54.576V12.376ZM59.394 19.262C61.7553 19.262 62.936 18.382 62.936 16.622C62.936 15.742 62.6353 15.0967 62.034 14.686C61.4473 14.2607 60.5673 14.048 59.394 14.048H54.576V19.262H59.394ZM68.4815 9.34H70.5935V17.832L77.7435 9.34H79.6575V21H77.5455V12.508L70.4175 21H68.4815V9.34ZM88.2889 16.072H85.8689V21H83.7569V9.34H85.8689V14.268H88.3329L92.1169 9.34H94.3829L89.9609 14.95L94.6909 21H92.2049L88.2889 16.072ZM101.513 21.132C100.354 21.132 99.3127 20.8753 98.3887 20.362C97.4647 19.8487 96.7387 19.1447 96.2107 18.25C95.6973 17.3407 95.4407 16.314 95.4407 15.17C95.4407 14.026 95.6973 13.0067 96.2107 12.112C96.7387 11.2027 97.4647 10.4987 98.3887 10C99.3127 9.48667 100.354 9.23 101.513 9.23C102.671 9.23 103.705 9.48667 104.615 10C105.539 10.4987 106.257 11.2027 106.771 12.112C107.299 13.0067 107.563 14.026 107.563 15.17C107.563 16.314 107.299 17.3407 106.771 18.25C106.257 19.1447 105.539 19.8487 104.615 20.362C103.705 20.8753 102.671 21.132 101.513 21.132ZM101.513 19.284C102.261 19.284 102.928 19.1153 103.515 18.778C104.116 18.426 104.585 17.942 104.923 17.326C105.26 16.6953 105.429 15.9767 105.429 15.17C105.429 14.3633 105.26 13.652 104.923 13.036C104.585 12.4053 104.116 11.9213 103.515 11.584C102.928 11.2467 102.261 11.078 101.513 11.078C100.765 11.078 100.09 11.2467 99.4887 11.584C98.902 11.9213 98.4327 12.4053 98.0807 13.036C97.7433 13.652 97.5747 14.3633 97.5747 15.17C97.5747 15.9767 97.7433 16.6953 98.0807 17.326C98.4327 17.942 98.902 18.426 99.4887 18.778C100.09 19.1153 100.765 19.284 101.513 19.284ZM110.612 9.34H112.724V14.29H119.368V9.34H121.48V21H119.368V16.116H112.724V21H110.612V9.34ZM129.745 9.23C131.358 9.23 132.59 9.626 133.441 10.418C134.306 11.21 134.739 12.3907 134.739 13.96V21H132.737V19.46C132.385 20.0027 131.879 20.4207 131.219 20.714C130.574 20.9927 129.804 21.132 128.909 21.132C127.604 21.132 126.555 20.8167 125.763 20.186C124.986 19.5553 124.597 18.7267 124.597 17.7C124.597 16.6733 124.971 15.852 125.719 15.236C126.467 14.6053 127.655 14.29 129.283 14.29H132.627V13.872C132.627 12.9627 132.363 12.266 131.835 11.782C131.307 11.298 130.53 11.056 129.503 11.056C128.814 11.056 128.139 11.1733 127.479 11.408C126.819 11.628 126.262 11.9287 125.807 12.31L124.927 10.726C125.528 10.242 126.247 9.87533 127.083 9.626C127.919 9.362 128.806 9.23 129.745 9.23ZM129.261 19.504C130.068 19.504 130.764 19.328 131.351 18.976C131.938 18.6093 132.363 18.096 132.627 17.436V15.808H129.371C127.582 15.808 126.687 16.4093 126.687 17.612C126.687 18.1987 126.914 18.6607 127.369 18.998C127.824 19.3353 128.454 19.504 129.261 19.504ZM138.542 9.34H140.654V14.29H147.298V9.34H149.41V21H147.298V16.116H140.654V21H138.542V9.34ZM153.517 9.34H155.629V14.29H162.273V9.34H164.385V21H162.273V16.116H155.629V21H153.517V9.34ZM177.841 9.34V21H175.949V17.304H172.561H172.319L169.767 21H167.501L170.339 17.018C169.459 16.754 168.785 16.3213 168.315 15.72C167.846 15.104 167.611 14.3413 167.611 13.432C167.611 12.0973 168.066 11.0853 168.975 10.396C169.885 9.692 171.139 9.34 172.737 9.34H177.841ZM169.767 13.498C169.767 14.2753 170.009 14.8547 170.493 15.236C170.992 15.6027 171.733 15.786 172.715 15.786H175.949V11.188H172.803C170.779 11.188 169.767 11.958 169.767 13.498ZM198.672 9.34V21H196.56V11.188H189.982V21H187.87V9.34H198.672ZM212.769 9.34V21H210.657V11.188H205.641L205.509 13.784C205.436 15.3533 205.296 16.666 205.091 17.722C204.886 18.7633 204.548 19.5993 204.079 20.23C203.61 20.8607 202.957 21.176 202.121 21.176C201.74 21.176 201.307 21.11 200.823 20.978L200.955 19.196C201.146 19.24 201.322 19.262 201.483 19.262C202.07 19.262 202.51 19.0053 202.803 18.492C203.096 17.9787 203.287 17.37 203.375 16.666C203.463 15.962 203.544 14.9573 203.617 13.652L203.815 9.34H212.769ZM221.011 9.23C222.624 9.23 223.856 9.626 224.707 10.418C225.572 11.21 226.005 12.3907 226.005 13.96V21H224.003V19.46C223.651 20.0027 223.145 20.4207 222.485 20.714C221.839 20.9927 221.069 21.132 220.175 21.132C218.869 21.132 217.821 20.8167 217.029 20.186C216.251 19.5553 215.863 18.7267 215.863 17.7C215.863 16.6733 216.237 15.852 216.985 15.236C217.733 14.6053 218.921 14.29 220.549 14.29H223.893V13.872C223.893 12.9627 223.629 12.266 223.101 11.782C222.573 11.298 221.795 11.056 220.769 11.056C220.079 11.056 219.405 11.1733 218.745 11.408C218.085 11.628 217.527 11.9287 217.073 12.31L216.193 10.726C216.794 10.242 217.513 9.87533 218.349 9.626C219.185 9.362 220.072 9.23 221.011 9.23ZM220.527 19.504C221.333 19.504 222.03 19.328 222.617 18.976C223.203 18.6093 223.629 18.096 223.893 17.436V15.808H220.637C218.847 15.808 217.953 16.4093 217.953 17.612C217.953 18.1987 218.18 18.6607 218.635 18.998C219.089 19.3353 219.72 19.504 220.527 19.504ZM229.808 9.34H231.92V14.29H238.564V9.34H240.676V21H238.564V16.116H231.92V21H229.808V9.34ZM255.188 9.34L249.534 22.166C249.036 23.354 248.449 24.19 247.774 24.674C247.114 25.158 246.315 25.4 245.376 25.4C244.804 25.4 244.247 25.3047 243.704 25.114C243.176 24.938 242.736 24.674 242.384 24.322L243.286 22.738C243.888 23.31 244.584 23.596 245.376 23.596C245.89 23.596 246.315 23.4567 246.652 23.178C247.004 22.914 247.32 22.452 247.598 21.792L247.972 20.978L242.824 9.34H245.024L249.094 18.668L253.12 9.34H255.188Z" fill="black"/>
</svg>