<svg width="450" height="150" viewBox="0 0 450 150" fill="none" xmlns="http://www.w3.org/2000/svg">
<rect width="450" height="150" fill="white"/>
<line x1="67" y1="39.5027" x2="385.006" y2="39.5027" stroke="#FFDD00" stroke-width="5"/>
<path d="M72.0432 39V26.22L72.5432 26.74H67.2632V25H78.8032V26.74H73.5232L74.0032 26.22V39H72.0432ZM84.5402 39.12C83.4069 39.12 82.4069 38.8867 81.5402 38.42C80.6869 37.9533 80.0202 37.3133 79.5402 36.5C79.0735 35.6867 78.8402 34.7533 78.8402 33.7C78.8402 32.6467 79.0669 31.7133 79.5202 30.9C79.9869 30.0867 80.6202 29.4533 81.4202 29C82.2335 28.5333 83.1469 28.3 84.1602 28.3C85.1869 28.3 86.0935 28.5267 86.8802 28.98C87.6669 29.4333 88.2802 30.0733 88.7202 30.9C89.1735 31.7133 89.4002 32.6667 89.4002 33.76C89.4002 33.84 89.3935 33.9333 89.3802 34.04C89.3802 34.1467 89.3735 34.2467 89.3602 34.34H80.3402V32.96H88.3602L87.5802 33.44C87.5935 32.76 87.4535 32.1533 87.1602 31.62C86.8669 31.0867 86.4602 30.6733 85.9402 30.38C85.4335 30.0733 84.8402 29.92 84.1602 29.92C83.4935 29.92 82.9002 30.0733 82.3802 30.38C81.8602 30.6733 81.4535 31.0933 81.1602 31.64C80.8669 32.1733 80.7202 32.7867 80.7202 33.48V33.8C80.7202 34.5067 80.8802 35.14 81.2002 35.7C81.5335 36.2467 81.9935 36.6733 82.5802 36.98C83.1669 37.2867 83.8402 37.44 84.6002 37.44C85.2269 37.44 85.7935 37.3333 86.3002 37.12C86.8202 36.9067 87.2735 36.5867 87.6602 36.16L88.7202 37.4C88.2402 37.96 87.6402 38.3867 86.9202 38.68C86.2135 38.9733 85.4202 39.12 84.5402 39.12ZM92.3788 39V28.4H94.3588L98.9188 36.24H98.1188L102.799 28.4H104.599V39H102.859V30.56L103.179 30.74L98.8988 37.8H98.0588L93.7588 30.6L94.1388 30.52V39H92.3788ZM108.336 39V28.4H118.156V39H116.236V29.6L116.696 30.08H109.796L110.256 29.6V39H108.336ZM126.591 39.12C125.458 39.12 124.458 38.8867 123.591 38.42C122.738 37.9533 122.071 37.3133 121.591 36.5C121.124 35.6867 120.891 34.7533 120.891 33.7C120.891 32.6467 121.118 31.7133 121.571 30.9C122.038 30.0867 122.671 29.4533 123.471 29C124.284 28.5333 125.198 28.3 126.211 28.3C127.238 28.3 128.144 28.5267 128.931 28.98C129.718 29.4333 130.331 30.0733 130.771 30.9C131.224 31.7133 131.451 32.6667 131.451 33.76C131.451 33.84 131.444 33.9333 131.431 34.04C131.431 34.1467 131.424 34.2467 131.411 34.34H122.391V32.96H130.411L129.631 33.44C129.644 32.76 129.504 32.1533 129.211 31.62C128.918 31.0867 128.511 30.6733 127.991 30.38C127.484 30.0733 126.891 29.92 126.211 29.92C125.544 29.92 124.951 30.0733 124.431 30.38C123.911 30.6733 123.504 31.0933 123.211 31.64C122.918 32.1733 122.771 32.7867 122.771 33.48V33.8C122.771 34.5067 122.931 35.14 123.251 35.7C123.584 36.2467 124.044 36.6733 124.631 36.98C125.218 37.2867 125.891 37.44 126.651 37.44C127.278 37.44 127.844 37.3333 128.351 37.12C128.871 36.9067 129.324 36.5867 129.711 36.16L130.771 37.4C130.291 37.96 129.691 38.3867 128.971 38.68C128.264 38.9733 127.471 39.12 126.591 39.12ZM140.05 39.12C139.17 39.12 138.363 38.92 137.63 38.52C136.91 38.1067 136.33 37.5 135.89 36.7C135.463 35.9 135.25 34.9 135.25 33.7C135.25 32.5 135.456 31.5 135.87 30.7C136.296 29.9 136.87 29.3 137.59 28.9C138.323 28.5 139.143 28.3 140.05 28.3C141.09 28.3 142.01 28.5267 142.81 28.98C143.61 29.4333 144.243 30.0667 144.71 30.88C145.176 31.68 145.41 32.62 145.41 33.7C145.41 34.78 145.176 35.7267 144.71 36.54C144.243 37.3533 143.61 37.9867 142.81 38.44C142.01 38.8933 141.09 39.12 140.05 39.12ZM134.43 42.88V28.4H136.27V31.26L136.15 33.72L136.35 36.18V42.88H134.43ZM139.89 37.44C140.57 37.44 141.176 37.2867 141.71 36.98C142.256 36.6733 142.683 36.24 142.99 35.68C143.31 35.1067 143.47 34.4467 143.47 33.7C143.47 32.94 143.31 32.2867 142.99 31.74C142.683 31.18 142.256 30.7467 141.71 30.44C141.176 30.1333 140.57 29.98 139.89 29.98C139.223 29.98 138.616 30.1333 138.07 30.44C137.536 30.7467 137.11 31.18 136.79 31.74C136.483 32.2867 136.33 32.94 136.33 33.7C136.33 34.4467 136.483 35.1067 136.79 35.68C137.11 36.24 137.536 36.6733 138.07 36.98C138.616 37.2867 139.223 37.44 139.89 37.44ZM154.601 39V36.76L154.501 36.34V32.52C154.501 31.7067 154.261 31.08 153.781 30.64C153.315 30.1867 152.608 29.96 151.661 29.96C151.035 29.96 150.421 30.0667 149.821 30.28C149.221 30.48 148.715 30.7533 148.301 31.1L147.501 29.66C148.048 29.22 148.701 28.8867 149.461 28.66C150.235 28.42 151.041 28.3 151.881 28.3C153.335 28.3 154.455 28.6533 155.241 29.36C156.028 30.0667 156.421 31.1467 156.421 32.6V39H154.601ZM151.121 39.12C150.335 39.12 149.641 38.9867 149.041 38.72C148.455 38.4533 148.001 38.0867 147.681 37.62C147.361 37.14 147.201 36.6 147.201 36C147.201 35.4267 147.335 34.9067 147.601 34.44C147.881 33.9733 148.328 33.6 148.941 33.32C149.568 33.04 150.408 32.9 151.461 32.9H154.821V34.28H151.541C150.581 34.28 149.935 34.44 149.601 34.76C149.268 35.08 149.101 35.4667 149.101 35.92C149.101 36.44 149.308 36.86 149.721 37.18C150.135 37.4867 150.708 37.64 151.441 37.64C152.161 37.64 152.788 37.48 153.321 37.16C153.868 36.84 154.261 36.3733 154.501 35.76L154.881 37.08C154.628 37.7067 154.181 38.2067 153.541 38.58C152.901 38.94 152.095 39.12 151.121 39.12ZM161.979 39V29.58L162.459 30.08H158.099V28.4H167.779V30.08H163.439L163.899 29.58V39H161.979ZM170.282 43C169.775 43 169.282 42.9133 168.802 42.74C168.322 42.58 167.909 42.34 167.562 42.02L168.382 40.58C168.649 40.8333 168.942 41.0267 169.262 41.16C169.582 41.2933 169.922 41.36 170.282 41.36C170.749 41.36 171.135 41.24 171.442 41C171.749 40.76 172.035 40.3333 172.302 39.72L172.962 38.26L173.162 38.02L177.322 28.4H179.202L174.062 40.06C173.755 40.8067 173.409 41.3933 173.022 41.82C172.649 42.2467 172.235 42.5467 171.782 42.72C171.329 42.9067 170.829 43 170.282 43ZM172.802 39.34L167.962 28.4H169.962L174.082 37.84L172.802 39.34ZM186.788 39.12C185.908 39.12 185.101 38.92 184.368 38.52C183.648 38.1067 183.068 37.5 182.628 36.7C182.201 35.9 181.988 34.9 181.988 33.7C181.988 32.5 182.195 31.5 182.608 30.7C183.035 29.9 183.608 29.3 184.328 28.9C185.061 28.5 185.881 28.3 186.788 28.3C187.828 28.3 188.748 28.5267 189.548 28.98C190.348 29.4333 190.981 30.0667 191.448 30.88C191.915 31.68 192.148 32.62 192.148 33.7C192.148 34.78 191.915 35.7267 191.448 36.54C190.981 37.3533 190.348 37.9867 189.548 38.44C188.748 38.8933 187.828 39.12 186.788 39.12ZM181.168 42.88V28.4H183.008V31.26L182.888 33.72L183.088 36.18V42.88H181.168ZM186.628 37.44C187.308 37.44 187.915 37.2867 188.448 36.98C188.995 36.6733 189.421 36.24 189.728 35.68C190.048 35.1067 190.208 34.4467 190.208 33.7C190.208 32.94 190.048 32.2867 189.728 31.74C189.421 31.18 188.995 30.7467 188.448 30.44C187.915 30.1333 187.308 29.98 186.628 29.98C185.961 29.98 185.355 30.1333 184.808 30.44C184.275 30.7467 183.848 31.18 183.528 31.74C183.221 32.2867 183.068 32.94 183.068 33.7C183.068 34.4467 183.221 35.1067 183.528 35.68C183.848 36.24 184.275 36.6733 184.808 36.98C185.355 37.2867 185.961 37.44 186.628 37.44ZM201.34 39V36.76L201.24 36.34V32.52C201.24 31.7067 201 31.08 200.52 30.64C200.053 30.1867 199.346 29.96 198.4 29.96C197.773 29.96 197.16 30.0667 196.56 30.28C195.96 30.48 195.453 30.7533 195.04 31.1L194.24 29.66C194.786 29.22 195.44 28.8867 196.2 28.66C196.973 28.42 197.78 28.3 198.62 28.3C200.073 28.3 201.193 28.6533 201.98 29.36C202.766 30.0667 203.16 31.1467 203.16 32.6V39H201.34ZM197.86 39.12C197.073 39.12 196.38 38.9867 195.78 38.72C195.193 38.4533 194.74 38.0867 194.42 37.62C194.1 37.14 193.94 36.6 193.94 36C193.94 35.4267 194.073 34.9067 194.34 34.44C194.62 33.9733 195.066 33.6 195.68 33.32C196.306 33.04 197.146 32.9 198.2 32.9H201.56V34.28H198.28C197.32 34.28 196.673 34.44 196.34 34.76C196.006 35.08 195.84 35.4667 195.84 35.92C195.84 36.44 196.046 36.86 196.46 37.18C196.873 37.4867 197.446 37.64 198.18 37.64C198.9 37.64 199.526 37.48 200.06 37.16C200.606 36.84 201 36.3733 201.24 35.76L201.62 37.08C201.366 37.7067 200.92 38.2067 200.28 38.58C199.64 38.94 198.833 39.12 197.86 39.12ZM211.988 39V28.4H216.908C218.148 28.4 219.122 28.64 219.828 29.12C220.548 29.5867 220.908 30.2533 220.908 31.12C220.908 31.9867 220.568 32.66 219.888 33.14C219.222 33.6067 218.335 33.84 217.228 33.84L217.528 33.32C218.795 33.32 219.735 33.5533 220.348 34.02C220.962 34.4867 221.268 35.1733 221.268 36.08C221.268 37 220.922 37.72 220.228 38.24C219.548 38.7467 218.502 39 217.088 39H211.988ZM213.868 37.52H216.948C217.748 37.52 218.348 37.4 218.748 37.16C219.148 36.9067 219.348 36.5067 219.348 35.96C219.348 35.4 219.162 34.9933 218.788 34.74C218.428 34.4733 217.855 34.34 217.068 34.34H213.868V37.52ZM213.868 32.96H216.748C217.482 32.96 218.035 32.8267 218.408 32.56C218.795 32.28 218.988 31.8933 218.988 31.4C218.988 30.8933 218.795 30.5133 218.408 30.26C218.035 30.0067 217.482 29.88 216.748 29.88H213.868V32.96ZM231.744 39V29.58L232.224 30.08H227.864V28.4H237.544V30.08H233.204L233.664 29.58V39H231.744ZM243.579 39.12C242.512 39.12 241.566 38.8867 240.739 38.42C239.912 37.9533 239.259 37.3133 238.779 36.5C238.299 35.6733 238.059 34.74 238.059 33.7C238.059 32.6467 238.299 31.7133 238.779 30.9C239.259 30.0867 239.912 29.4533 240.739 29C241.566 28.5333 242.512 28.3 243.579 28.3C244.632 28.3 245.572 28.5333 246.399 29C247.239 29.4533 247.892 30.0867 248.359 30.9C248.839 31.7 249.079 32.6333 249.079 33.7C249.079 34.7533 248.839 35.6867 248.359 36.5C247.892 37.3133 247.239 37.9533 246.399 38.42C245.572 38.8867 244.632 39.12 243.579 39.12ZM243.579 37.44C244.259 37.44 244.866 37.2867 245.399 36.98C245.946 36.6733 246.372 36.24 246.679 35.68C246.986 35.1067 247.139 34.4467 247.139 33.7C247.139 32.94 246.986 32.2867 246.679 31.74C246.372 31.18 245.946 30.7467 245.399 30.44C244.866 30.1333 244.259 29.98 243.579 29.98C242.899 29.98 242.292 30.1333 241.759 30.44C241.226 30.7467 240.799 31.18 240.479 31.74C240.159 32.2867 239.999 32.94 239.999 33.7C239.999 34.4467 240.159 35.1067 240.479 35.68C240.799 36.24 241.226 36.6733 241.759 36.98C242.292 37.2867 242.899 37.44 243.579 37.44ZM257.471 39.12C256.591 39.12 255.785 38.92 255.051 38.52C254.331 38.1067 253.751 37.5 253.311 36.7C252.885 35.9 252.671 34.9 252.671 33.7C252.671 32.5 252.878 31.5 253.291 30.7C253.718 29.9 254.291 29.3 255.011 28.9C255.745 28.5 256.565 28.3 257.471 28.3C258.511 28.3 259.431 28.5267 260.231 28.98C261.031 29.4333 261.665 30.0667 262.131 30.88C262.598 31.68 262.831 32.62 262.831 33.7C262.831 34.78 262.598 35.7267 262.131 36.54C261.665 37.3533 261.031 37.9867 260.231 38.44C259.431 38.8933 258.511 39.12 257.471 39.12ZM251.851 42.88V28.4H253.691V31.26L253.571 33.72L253.771 36.18V42.88H251.851ZM257.311 37.44C257.991 37.44 258.598 37.2867 259.131 36.98C259.678 36.6733 260.105 36.24 260.411 35.68C260.731 35.1067 260.891 34.4467 260.891 33.7C260.891 32.94 260.731 32.2867 260.411 31.74C260.105 31.18 259.678 30.7467 259.131 30.44C258.598 30.1333 257.991 29.98 257.311 29.98C256.645 29.98 256.038 30.1333 255.491 30.44C254.958 30.7467 254.531 31.18 254.211 31.74C253.905 32.2867 253.751 32.94 253.751 33.7C253.751 34.4467 253.905 35.1067 254.211 35.68C254.531 36.24 254.958 36.6733 255.491 36.98C256.038 37.2867 256.645 37.44 257.311 37.44ZM265.621 39V28.4H273.421V30.08H267.081L267.541 29.64V39H265.621ZM279.458 39.12C278.391 39.12 277.445 38.8867 276.618 38.42C275.791 37.9533 275.138 37.3133 274.658 36.5C274.178 35.6733 273.938 34.74 273.938 33.7C273.938 32.6467 274.178 31.7133 274.658 30.9C275.138 30.0867 275.791 29.4533 276.618 29C277.445 28.5333 278.391 28.3 279.458 28.3C280.511 28.3 281.451 28.5333 282.278 29C283.118 29.4533 283.771 30.0867 284.238 30.9C284.718 31.7 284.958 32.6333 284.958 33.7C284.958 34.7533 284.718 35.6867 284.238 36.5C283.771 37.3133 283.118 37.9533 282.278 38.42C281.451 38.8867 280.511 39.12 279.458 39.12ZM279.458 37.44C280.138 37.44 280.745 37.2867 281.278 36.98C281.825 36.6733 282.251 36.24 282.558 35.68C282.865 35.1067 283.018 34.4467 283.018 33.7C283.018 32.94 282.865 32.2867 282.558 31.74C282.251 31.18 281.825 30.7467 281.278 30.44C280.745 30.1333 280.138 29.98 279.458 29.98C278.778 29.98 278.171 30.1333 277.638 30.44C277.105 30.7467 276.678 31.18 276.358 31.74C276.038 32.2867 275.878 32.94 275.878 33.7C275.878 34.4467 276.038 35.1067 276.358 35.68C276.678 36.24 277.105 36.6733 277.638 36.98C278.171 37.2867 278.778 37.44 279.458 37.44ZM287.73 39V28.4H292.65C293.89 28.4 294.864 28.64 295.57 29.12C296.29 29.5867 296.65 30.2533 296.65 31.12C296.65 31.9867 296.31 32.66 295.63 33.14C294.964 33.6067 294.077 33.84 292.97 33.84L293.27 33.32C294.537 33.32 295.477 33.5533 296.09 34.02C296.704 34.4867 297.01 35.1733 297.01 36.08C297.01 37 296.664 37.72 295.97 38.24C295.29 38.7467 294.244 39 292.83 39H287.73ZM289.61 37.52H292.69C293.49 37.52 294.09 37.4 294.49 37.16C294.89 36.9067 295.09 36.5067 295.09 35.96C295.09 35.4 294.904 34.9933 294.53 34.74C294.17 34.4733 293.597 34.34 292.81 34.34H289.61V37.52ZM289.61 32.96H292.49C293.224 32.96 293.777 32.8267 294.15 32.56C294.537 32.28 294.73 31.8933 294.73 31.4C294.73 30.8933 294.537 30.5133 294.15 30.26C293.777 30.0067 293.224 29.88 292.49 29.88H289.61V32.96ZM304.556 39.12C303.489 39.12 302.542 38.8867 301.716 38.42C300.889 37.9533 300.236 37.3133 299.756 36.5C299.276 35.6733 299.036 34.74 299.036 33.7C299.036 32.6467 299.276 31.7133 299.756 30.9C300.236 30.0867 300.889 29.4533 301.716 29C302.542 28.5333 303.489 28.3 304.556 28.3C305.609 28.3 306.549 28.5333 307.376 29C308.216 29.4533 308.869 30.0867 309.336 30.9C309.816 31.7 310.056 32.6333 310.056 33.7C310.056 34.7533 309.816 35.6867 309.336 36.5C308.869 37.3133 308.216 37.9533 307.376 38.42C306.549 38.8867 305.609 39.12 304.556 39.12ZM304.556 37.44C305.236 37.44 305.842 37.2867 306.376 36.98C306.922 36.6733 307.349 36.24 307.656 35.68C307.962 35.1067 308.116 34.4467 308.116 33.7C308.116 32.94 307.962 32.2867 307.656 31.74C307.349 31.18 306.922 30.7467 306.376 30.44C305.842 30.1333 305.236 29.98 304.556 29.98C303.876 29.98 303.269 30.1333 302.736 30.44C302.202 30.7467 301.776 31.18 301.456 31.74C301.136 32.2867 300.976 32.94 300.976 33.7C300.976 34.4467 301.136 35.1067 301.456 35.68C301.776 36.24 302.202 36.6733 302.736 36.98C303.269 37.2867 303.876 37.44 304.556 37.44ZM312.828 39V28.4H314.808L319.368 36.24H318.568L323.248 28.4H325.048V39H323.308V30.56L323.628 30.74L319.348 37.8H318.508L314.208 30.6L314.588 30.52V39H312.828ZM329.325 43C328.818 43 328.325 42.9133 327.845 42.74C327.365 42.58 326.952 42.34 326.605 42.02L327.425 40.58C327.692 40.8333 327.985 41.0267 328.305 41.16C328.625 41.2933 328.965 41.36 329.325 41.36C329.792 41.36 330.178 41.24 330.485 41C330.792 40.76 331.078 40.3333 331.345 39.72L332.005 38.26L332.205 38.02L336.365 28.4H338.245L333.105 40.06C332.798 40.8067 332.452 41.3933 332.065 41.82C331.692 42.2467 331.278 42.5467 330.825 42.72C330.372 42.9067 329.872 43 329.325 43ZM331.845 39.34L327.005 28.4H329.005L333.125 37.84L331.845 39.34ZM348.682 39.14C349.615 39.14 350.442 39.0067 351.162 38.74C351.895 38.46 352.475 38.08 352.902 37.6C353.329 37.1067 353.542 36.54 353.542 35.9C353.542 35.1 353.202 34.4667 352.522 34C351.842 33.5333 350.909 33.3 349.722 33.3L349.642 33.76C350.335 33.76 350.949 33.6467 351.482 33.42C352.015 33.1933 352.442 32.8867 352.762 32.5C353.082 32.1 353.242 31.6467 353.242 31.14C353.242 30.54 353.029 30.02 352.602 29.58C352.189 29.14 351.622 28.8067 350.902 28.58C350.182 28.34 349.362 28.2333 348.442 28.26C347.829 28.2733 347.209 28.3667 346.582 28.54C345.969 28.7 345.342 28.9333 344.702 29.24L345.222 30.74C345.795 30.46 346.355 30.2533 346.902 30.12C347.462 29.9867 348.009 29.9133 348.542 29.9C349.089 29.9 349.562 29.96 349.962 30.08C350.375 30.2 350.695 30.3733 350.922 30.6C351.149 30.8267 351.262 31.1 351.262 31.42C351.262 31.7133 351.162 31.9733 350.962 32.2C350.775 32.4133 350.509 32.5733 350.162 32.68C349.815 32.7867 349.409 32.84 348.942 32.84H347.142V34.22H349.062C349.849 34.22 350.462 34.3533 350.902 34.62C351.342 34.8867 351.562 35.2667 351.562 35.76C351.562 36.1067 351.442 36.4133 351.202 36.68C350.962 36.9333 350.615 37.1333 350.162 37.28C349.722 37.4267 349.195 37.5 348.582 37.5C347.915 37.5 347.255 37.4133 346.602 37.24C345.949 37.0533 345.369 36.8 344.862 36.48L344.282 37.94C344.882 38.3267 345.562 38.6267 346.322 38.84C347.095 39.04 347.882 39.14 348.682 39.14ZM362.961 39V36.76L362.861 36.34V32.52C362.861 31.7067 362.621 31.08 362.141 30.64C361.674 30.1867 360.967 29.96 360.021 29.96C359.394 29.96 358.781 30.0667 358.181 30.28C357.581 30.48 357.074 30.7533 356.661 31.1L355.861 29.66C356.407 29.22 357.061 28.8867 357.821 28.66C358.594 28.42 359.401 28.3 360.241 28.3C361.694 28.3 362.814 28.6533 363.601 29.36C364.387 30.0667 364.781 31.1467 364.781 32.6V39H362.961ZM359.481 39.12C358.694 39.12 358.001 38.9867 357.401 38.72C356.814 38.4533 356.361 38.0867 356.041 37.62C355.721 37.14 355.561 36.6 355.561 36C355.561 35.4267 355.694 34.9067 355.961 34.44C356.241 33.9733 356.687 33.6 357.301 33.32C357.927 33.04 358.767 32.9 359.821 32.9H363.181V34.28H359.901C358.941 34.28 358.294 34.44 357.961 34.76C357.627 35.08 357.461 35.4667 357.461 35.92C357.461 36.44 357.667 36.86 358.081 37.18C358.494 37.4867 359.067 37.64 359.801 37.64C360.521 37.64 361.147 37.48 361.681 37.16C362.227 36.84 362.621 36.3733 362.861 35.76L363.241 37.08C362.987 37.7067 362.541 38.2067 361.901 38.58C361.261 38.94 360.454 39.12 359.481 39.12ZM366.478 38.98L366.598 37.36C366.692 37.3733 366.778 37.3867 366.858 37.4C366.938 37.4133 367.012 37.42 367.078 37.42C367.505 37.42 367.838 37.2733 368.078 36.98C368.332 36.6867 368.518 36.3 368.638 35.82C368.758 35.3267 368.845 34.7733 368.898 34.16C368.952 33.5467 368.992 32.9333 369.018 32.32L369.198 28.4H377.338V39H375.418V29.52L375.878 30.08H370.438L370.878 29.5L370.738 32.44C370.698 33.3733 370.625 34.2467 370.518 35.06C370.412 35.8733 370.245 36.5867 370.018 37.2C369.805 37.8133 369.505 38.2933 369.118 38.64C368.745 38.9867 368.258 39.16 367.658 39.16C367.485 39.16 367.298 39.14 367.098 39.1C366.912 39.0733 366.705 39.0333 366.478 38.98ZM381.051 39V28.4H382.971V39H381.051ZM382.011 26.36C381.637 26.36 381.324 26.24 381.071 26C380.831 25.76 380.711 25.4667 380.711 25.12C380.711 24.76 380.831 24.46 381.071 24.22C381.324 23.98 381.637 23.86 382.011 23.86C382.384 23.86 382.691 23.98 382.931 24.22C383.184 24.4467 383.311 24.7333 383.311 25.08C383.311 25.44 383.191 25.7467 382.951 26C382.711 26.24 382.397 26.36 382.011 26.36Z" fill="black"/>
</svg>