<svg xmlns="http://www.w3.org/2000/svg" height="1270px" width="450px"><text y="15" style="font-family:Times New Roman; font-size:15px; fill:red;" >Evaluation Only. Created with Aspose.SVG. Copyright 2018-2021 Aspose Pty Ltd.</text><defs><link xmlns="http://www.w3.org/1999/xhtml" href="https://fonts.googleapis.com/css?family=Montserrat:400,500,80" type="text/css" rel="stylesheet"/></defs><image x="0px" y="0px" height="1270px" width="450px" href="Images//empty.svg"/><image x="143px" y="1057px" height="165px" width="165px" href="images//gobletYellow.svg"/><text height="44px" width="102px" x="51%" y="1035px" text-anchor="middle" style="font-family: &quot;Montserrat&quot;; font-size: 36px; font-weight: 700;">0 грн</text><circle cx="220.5" cy="861.5" r="95" fill="none" stroke="#38C421" stroke-opacity="0.2" stroke-width="23" transform="rotate(-92,225,865)" stroke-dasharray="597" stroke-dashoffset="585"/><circle cx="220.5" cy="861.5" r="95" fill="none" stroke="#FFDD00" stroke-width="17" transform="rotate(-92,224,866)" stroke-dasharray="597" stroke-dashoffset="-16"/><text height="44px" width="102px" x="50%" y="884px" text-anchor="middle" style="font-family: Montserrat; font-size: 36px; font-weight: 700;">102,0%</text><circle cx="215.5" cy="581.5" r="95" fill="none" stroke="#38C421" stroke-opacity="0.2" stroke-width="23" transform="rotate(-92,220,582)" stroke-dasharray="597" stroke-dashoffset="-402"/><circle cx="215.5" cy="581.5" r="95" fill="none" stroke="#999999" transform="rotate(-90,220,582)" stroke-width="17" stroke-dasharray="597" stroke-dashoffset="202"/><text height="44px" width="102px" x="215px" y="631px" style="font-family: Montserrat; font-size: 14px; font-weight: 500;">1 521 956</text><text height="44px" width="102px" x="170px" y="630px" style="font-family: Montserrat; font-size: 14px; font-weight: 500;">План:</text><text height="44px" width="102px" x="215px" y="611px" style="font-family: Montserrat; font-size: 14px; font-weight: 500;">1 007 938</text><text height="44px" width="102px" x="170px" y="610px" style="font-family: Montserrat; font-size: 14px; font-weight: 500;">Факт:</text><text height="44px" width="102px" x="50%" y="576px" text-anchor="middle" style="font-family: Montserrat; font-size: 36px; font-weight: 700;">66,2%</text><circle cx="215.5" cy="285.5" r="95" fill="none" stroke="#38C32133" stroke-width="23" transform="rotate(-92,220,285)" stroke-dasharray="597" stroke-dashoffset="-52"/><circle cx="215.5" cy="285.5" r="95" fill="none" stroke="#999999" transform="rotate(-90,220,285)" stroke-width="17" stroke-dasharray="597" stroke-dashoffset="552"/><text height="44px" width="102px" x="225px" y="329px" style="font-family: Montserrat; font-size: 14px; font-weight: 500;">50 287</text><text height="44px" width="102px" x="180px" y="328px" style="font-family: Montserrat; font-size: 14px; font-weight: 500;">План:</text><text height="44px" width="102px" x="225px" y="311px" style="font-family: Montserrat; font-size: 14px; font-weight: 500;">3 750</text><text height="44px" width="102px" x="180px" y="310px" style="font-family: Montserrat; font-size: 14px; font-weight: 500;">Факт:</text><text height="44px" width="102px" x="50%" y="278px" text-anchor="middle" style="font-family: Montserrat; line-height: 44px; font-size: 36px; font-weight: 700; font-style: normal;">7,5%</text></svg>