<svg xmlns="http://www.w3.org/2000/svg" height="1270px" width="450px"><text y="15" style="font-family:Times New Roman; font-size:15px; fill:red;" >Evaluation Only. Created with Aspose.SVG. Copyright 2018-2021 Aspose Pty Ltd.</text><image x="0px" y="0px" height="1270px" width="450px" href="Images//empty.svg"/><image x="143px" y="1057px" height="165px" width="165px" href="Images//gobletGreen.svg"/><text height="44px" width="102px" x="51%" y="1035px" text-anchor="middle" style="font-family: sans-serif; font-size: 36px; font-weight: 700;">0 грн</text><circle cx="220.5" cy="861.5" r="82.5" fill="none" stroke="#38C421" stroke-opacity="0.2" stroke-width="23"/><circle cx="220.5" cy="861.5" r="82.5" fill="none" stroke="#ffffff" transform="rotate(-92,220,885)" stroke-width="26" stroke-dasharray="518" stroke-dashoffset="-116"/><circle cx="220.5" cy="861.5" r="82.5" fill="none" stroke="#38C321" transform="rotate(-90,220,885)" stroke-width="15" stroke-dasharray="518" stroke-dashoffset="-110"/><text height="44px" width="102px" x="50%" y="874px" text-anchor="middle" style="font-family: sans-serif; font-size: 36px; font-weight: 700;">121,2%</text><circle cx="220.5" cy="581.5" r="82.5" fill="none" stroke="#38C421" stroke-opacity="0.2" stroke-width="23"/><circle cx="220.5" cy="581.5" r="82.5" fill="none" stroke="#ffffff" transform="rotate(-92,220,582)" stroke-width="26" stroke-dasharray="518" stroke-dashoffset="190"/><circle cx="220.5" cy="581.5" r="82.5" fill="none" stroke="#999999" transform="rotate(-90,220,582)" stroke-width="15" stroke-dasharray="518" stroke-dashoffset="196"/><text height="44px" width="102px" x="215px" y="621px" style="font-family: sans-serif; font-size: 14px; font-weight: 500;">1 290 841</text><text height="44px" width="102px" x="175px" y="620px" style="font-family: sans-serif; font-size: 14px; font-weight: 500;">План:</text><text height="44px" width="102px" x="215px" y="601px" style="font-family: sans-serif; font-size: 14px; font-weight: 500;">801 850</text><text height="44px" width="102px" x="175px" y="600px" style="font-family: sans-serif; font-size: 14px; font-weight: 500;">Факт:</text><text height="44px" width="102px" x="50%" y="571px" text-anchor="middle" style="font-family: sans-serif; font-size: 36px; font-weight: 700;">62,1%</text><circle cx="220.5" cy="285.5" r="82.5" fill="none" stroke="#38C32133" stroke-width="23"/><circle cx="220.5" cy="285.5" r="82.5" fill="none" stroke="#ffffff" transform="rotate(-92,220,285)" stroke-width="26" stroke-dasharray="518" stroke-dashoffset="16"/><circle cx="220.5" cy="285.5" r="82.5" fill="none" stroke="#E30613" transform="rotate(-90,220,285)" stroke-width="15" stroke-dasharray="518" stroke-dashoffset="22"/></svg>